%TF.GenerationSoftware,Flux,Flux PCB Export,1*%
%TF.CreationDate,2026-10-01T10:50:10+00:00*%
%TF.ProjectId,input,696e7075-742e-46b6-9963-61645f706362,rev?*%
%TF.SameCoordinates,Original*%
%TF.FileFunction,Copper,L1,Top*%
%TF.FilePolarity,Positive*%
%FSLAX46Y46*%
G04 Gerber Fmt 4.6, Leading zero omitted, Abs format (unit mm)*
G04 Filename: brief*
G04 Build it with Flux! Visit our site at: https://www.flux.ai (Flux) date 2026-10-01 10:50:10*
%MOMM*%
%LPD*%
G01*
G04 APERTURE LIST*
%TA.AperFunction,ComponentPad*%
%ADD10C,2.000000*%
%TD*%
%TA.AperFunction,ComponentPad*%
%ADD11C,1.500000*%
%TD*%
%TA.AperFunction,ComponentPad*%
%ADD12C,1.600000*%
%TD*%
%TA.AperFunction,ComponentPad*%
%ADD13R,1.700000X1.700000*%
%TD*%
%TA.AperFunction,ComponentPad*%
%ADD14C,1.700000*%
%TD*%
G04 APERTURE END LIST*
D10*
%TO.P,SW1,1-1*%
%TO.N,BTN1_GPIO26*%
X18000000Y-60840500D03*
%TO.P,SW1,1-2*%
X24500000Y-60840500D03*
%TO.P,SW1,2-2*%
%TO.N,GND*%
X24500000Y-65340500D03*
%TO.P,SW1,2-1*%
X18000000Y-65340500D03*
%TD*%
D11*
%TO.P,LED2,1*%
%TO.N,GND*%
X29500000Y-52340500D03*
%TO.P,LED2,2*%
%TO.N,LED2_ANODE*%
X32040000Y-52340500D03*
%TD*%
%TO.P,LED1,1*%
%TO.N,GND*%
X13500000Y-52340500D03*
%TO.P,LED1,2*%
%TO.N,LED1_ANODE*%
X16040000Y-52340500D03*
%TD*%
D12*
%TO.P,R1,P2*%
%TO.N,LED1_ANODE*%
X20620000Y-46340500D03*
%TO.P,R1,P1*%
%TO.N,LED1_GPIO28*%
X13000000Y-46340500D03*
%TD*%
D13*
%TO.P,U1,P26/A0/D0*%
%TO.N,BTN1_GPIO26*%
X22250000Y-13240500D03*
D14*
%TO.P,U1,D8/SCK/P2*%
%TO.N,N/C*%
X37744000Y-25940500D03*
%TO.P,U1,P6/SDA/D4*%
X22250000Y-23400500D03*
%TO.P,U1,P28/A2/D2*%
%TO.N,LED1_GPIO28*%
X22250000Y-18320500D03*
%TO.P,U1,P27/A1/D1*%
%TO.N,BTN2_GPIO27*%
X22250000Y-15780500D03*
%TO.P,U1,P7/SCL/D5*%
%TO.N,N/C*%
X22250000Y-25940500D03*
%TO.P,U1,D9/MISO/P4*%
X37744000Y-23400500D03*
%TO.P,U1,P0/TX/D6*%
X22250000Y-28480500D03*
%TO.P,U1,P29/A3/D3*%
%TO.N,LED2_GPIO29*%
X22250000Y-20860500D03*
%TO.P,U1,D7/CSn/P1/RX*%
%TO.N,N/C*%
X37744000Y-28480500D03*
%TO.P,U1,GND*%
%TO.N,GND*%
X37744000Y-15780500D03*
%TO.P,U1,D10/MOSI/P3*%
%TO.N,N/C*%
X37744000Y-20860500D03*
%TO.P,U1,3V3*%
X37744000Y-18320500D03*
%TO.P,U1,5V*%
X37744000Y-13240500D03*
%TD*%
D10*
%TO.P,SW2,1-1*%
%TO.N,BTN2_GPIO27*%
X34000000Y-60840500D03*
%TO.P,SW2,1-2*%
X40500000Y-60840500D03*
%TO.P,SW2,2-2*%
%TO.N,GND*%
X40500000Y-65340500D03*
%TO.P,SW2,2-1*%
X34000000Y-65340500D03*
%TD*%
D12*
%TO.P,R2,P2*%
%TO.N,LED2_ANODE*%
X37620000Y-46340500D03*
%TO.P,R2,P1*%
%TO.N,LED2_GPIO29*%
X30000000Y-46340500D03*
%TD*%
%TA.AperFunction,Conductor*%
%TO.N,GND*%
G36*
X49283000Y-70240500D02*
G01*
X10717000Y-70240500D01*
X10600000Y-70123500D01*
X10600000Y-65269500D01*
X17455000Y-65269500D01*
X17455000Y-65411500D01*
X17456000Y-65416500D01*
X17491000Y-65548500D01*
X17493000Y-65554500D01*
X17564000Y-65675500D01*
X17566000Y-65678500D01*
X17662000Y-65774500D01*
X17665000Y-65776500D01*
X17786000Y-65847500D01*
X17792000Y-65849500D01*
X17924000Y-65884500D01*
X17929000Y-65885500D01*
X18071000Y-65885500D01*
X18076000Y-65884500D01*
X18208000Y-65849500D01*
X18214000Y-65847500D01*
X18335000Y-65776500D01*
X18338000Y-65774500D01*
X18434000Y-65678500D01*
X18436000Y-65675500D01*
X18507000Y-65554500D01*
X18509000Y-65548500D01*
X18544000Y-65416500D01*
X18545000Y-65411500D01*
X18545000Y-65269500D01*
X23955000Y-65269500D01*
X23955000Y-65411500D01*
X23956000Y-65416500D01*
X23991000Y-65548500D01*
X23993000Y-65554500D01*
X24064000Y-65675500D01*
X24066000Y-65678500D01*
X24162000Y-65774500D01*
X24165000Y-65776500D01*
X24286000Y-65847500D01*
X24292000Y-65849500D01*
X24424000Y-65884500D01*
X24429000Y-65885500D01*
X24571000Y-65885500D01*
X24576000Y-65884500D01*
X24708000Y-65849500D01*
X24714000Y-65847500D01*
X24835000Y-65776500D01*
X24838000Y-65774500D01*
X24934000Y-65678500D01*
X24936000Y-65675500D01*
X25007000Y-65554500D01*
X25009000Y-65548500D01*
X25044000Y-65416500D01*
X25045000Y-65411500D01*
X25045000Y-65269500D01*
X33455000Y-65269500D01*
X33455000Y-65411500D01*
X33456000Y-65416500D01*
X33491000Y-65548500D01*
X33493000Y-65554500D01*
X33564000Y-65675500D01*
X33566000Y-65678500D01*
X33662000Y-65774500D01*
X33665000Y-65776500D01*
X33786000Y-65847500D01*
X33792000Y-65849500D01*
X33924000Y-65884500D01*
X33929000Y-65885500D01*
X34071000Y-65885500D01*
X34076000Y-65884500D01*
X34208000Y-65849500D01*
X34214000Y-65847500D01*
X34335000Y-65776500D01*
X34338000Y-65774500D01*
X34434000Y-65678500D01*
X34436000Y-65675500D01*
X34507000Y-65554500D01*
X34509000Y-65548500D01*
X34544000Y-65416500D01*
X34545000Y-65411500D01*
X34545000Y-65269500D01*
X39955000Y-65269500D01*
X39955000Y-65411500D01*
X39956000Y-65416500D01*
X39991000Y-65548500D01*
X39993000Y-65554500D01*
X40064000Y-65675500D01*
X40066000Y-65678500D01*
X40162000Y-65774500D01*
X40165000Y-65776500D01*
X40286000Y-65847500D01*
X40292000Y-65849500D01*
X40424000Y-65884500D01*
X40429000Y-65885500D01*
X40571000Y-65885500D01*
X40576000Y-65884500D01*
X40708000Y-65849500D01*
X40714000Y-65847500D01*
X40835000Y-65776500D01*
X40838000Y-65774500D01*
X40934000Y-65678500D01*
X40936000Y-65675500D01*
X41007000Y-65554500D01*
X41009000Y-65548500D01*
X41044000Y-65416500D01*
X41045000Y-65411500D01*
X41045000Y-65269500D01*
X41044000Y-65264500D01*
X41009000Y-65132500D01*
X41007000Y-65126500D01*
X40936000Y-65005500D01*
X40934000Y-65002500D01*
X40838000Y-64906500D01*
X40835000Y-64904500D01*
X40714000Y-64833500D01*
X40708000Y-64831500D01*
X40576000Y-64796500D01*
X40571000Y-64795500D01*
X40429000Y-64795500D01*
X40424000Y-64796500D01*
X40292000Y-64831500D01*
X40286000Y-64833500D01*
X40165000Y-64904500D01*
X40162000Y-64906500D01*
X40066000Y-65002500D01*
X40064000Y-65005500D01*
X39993000Y-65126500D01*
X39991000Y-65132500D01*
X39956000Y-65264500D01*
X39955000Y-65269500D01*
X34545000Y-65269500D01*
X34544000Y-65264500D01*
X34509000Y-65132500D01*
X34507000Y-65126500D01*
X34436000Y-65005500D01*
X34434000Y-65002500D01*
X34338000Y-64906500D01*
X34335000Y-64904500D01*
X34214000Y-64833500D01*
X34208000Y-64831500D01*
X34076000Y-64796500D01*
X34071000Y-64795500D01*
X33929000Y-64795500D01*
X33924000Y-64796500D01*
X33792000Y-64831500D01*
X33786000Y-64833500D01*
X33665000Y-64904500D01*
X33662000Y-64906500D01*
X33566000Y-65002500D01*
X33564000Y-65005500D01*
X33493000Y-65126500D01*
X33491000Y-65132500D01*
X33456000Y-65264500D01*
X33455000Y-65269500D01*
X25045000Y-65269500D01*
X25044000Y-65264500D01*
X25009000Y-65132500D01*
X25007000Y-65126500D01*
X24936000Y-65005500D01*
X24934000Y-65002500D01*
X24838000Y-64906500D01*
X24835000Y-64904500D01*
X24714000Y-64833500D01*
X24708000Y-64831500D01*
X24576000Y-64796500D01*
X24571000Y-64795500D01*
X24429000Y-64795500D01*
X24424000Y-64796500D01*
X24292000Y-64831500D01*
X24286000Y-64833500D01*
X24165000Y-64904500D01*
X24162000Y-64906500D01*
X24066000Y-65002500D01*
X24064000Y-65005500D01*
X23993000Y-65126500D01*
X23991000Y-65132500D01*
X23956000Y-65264500D01*
X23955000Y-65269500D01*
X18545000Y-65269500D01*
X18544000Y-65264500D01*
X18509000Y-65132500D01*
X18507000Y-65126500D01*
X18436000Y-65005500D01*
X18434000Y-65002500D01*
X18338000Y-64906500D01*
X18335000Y-64904500D01*
X18214000Y-64833500D01*
X18208000Y-64831500D01*
X18076000Y-64796500D01*
X18071000Y-64795500D01*
X17929000Y-64795500D01*
X17924000Y-64796500D01*
X17792000Y-64831500D01*
X17786000Y-64833500D01*
X17665000Y-64904500D01*
X17662000Y-64906500D01*
X17566000Y-65002500D01*
X17564000Y-65005500D01*
X17493000Y-65126500D01*
X17491000Y-65132500D01*
X17456000Y-65264500D01*
X17455000Y-65269500D01*
X10600000Y-65269500D01*
X10600000Y-60671500D01*
X16709000Y-60671500D01*
X16709000Y-61009500D01*
X16710000Y-61016500D01*
X16795000Y-61336500D01*
X16796000Y-61339500D01*
X16970000Y-61636500D01*
X16970000Y-61637500D01*
X17203000Y-61870500D01*
X17501000Y-62044500D01*
X17504000Y-62045500D01*
X17824000Y-62130500D01*
X17831000Y-62131500D01*
X18169000Y-62131500D01*
X18176000Y-62130500D01*
X18496000Y-62045500D01*
X18499000Y-62044500D01*
X18796000Y-61870500D01*
X18797000Y-61870500D01*
X19030000Y-61637500D01*
X19030000Y-61636500D01*
X19204000Y-61339500D01*
X19205000Y-61336500D01*
X19290000Y-61016500D01*
X19291000Y-61009500D01*
X19291000Y-60671500D01*
X23209000Y-60671500D01*
X23209000Y-61009500D01*
X23210000Y-61016500D01*
X23295000Y-61336500D01*
X23296000Y-61339500D01*
X23470000Y-61636500D01*
X23470000Y-61637500D01*
X23703000Y-61870500D01*
X24001000Y-62044500D01*
X24004000Y-62045500D01*
X24324000Y-62130500D01*
X24331000Y-62131500D01*
X24669000Y-62131500D01*
X24676000Y-62130500D01*
X24996000Y-62045500D01*
X24999000Y-62044500D01*
X25296000Y-61870500D01*
X25297000Y-61870500D01*
X25530000Y-61637500D01*
X25530000Y-61636500D01*
X25704000Y-61339500D01*
X25705000Y-61336500D01*
X25790000Y-61016500D01*
X25791000Y-61009500D01*
X25791000Y-60671500D01*
X32709000Y-60671500D01*
X32709000Y-61009500D01*
X32710000Y-61016500D01*
X32795000Y-61336500D01*
X32796000Y-61339500D01*
X32970000Y-61636500D01*
X32970000Y-61637500D01*
X33203000Y-61870500D01*
X33501000Y-62044500D01*
X33504000Y-62045500D01*
X33824000Y-62130500D01*
X33831000Y-62131500D01*
X34169000Y-62131500D01*
X34176000Y-62130500D01*
X34496000Y-62045500D01*
X34499000Y-62044500D01*
X34796000Y-61870500D01*
X34797000Y-61870500D01*
X35030000Y-61637500D01*
X35030000Y-61636500D01*
X35204000Y-61339500D01*
X35205000Y-61336500D01*
X35290000Y-61016500D01*
X35291000Y-61009500D01*
X35291000Y-60671500D01*
X39209000Y-60671500D01*
X39209000Y-61009500D01*
X39210000Y-61016500D01*
X39295000Y-61336500D01*
X39296000Y-61339500D01*
X39470000Y-61636500D01*
X39470000Y-61637500D01*
X39703000Y-61870500D01*
X40001000Y-62044500D01*
X40004000Y-62045500D01*
X40324000Y-62130500D01*
X40331000Y-62131500D01*
X40669000Y-62131500D01*
X40676000Y-62130500D01*
X40996000Y-62045500D01*
X40999000Y-62044500D01*
X41296000Y-61870500D01*
X41297000Y-61870500D01*
X41530000Y-61637500D01*
X41530000Y-61636500D01*
X41704000Y-61339500D01*
X41705000Y-61336500D01*
X41790000Y-61016500D01*
X41791000Y-61009500D01*
X41791000Y-60671500D01*
X41790000Y-60664500D01*
X41705000Y-60344500D01*
X41704000Y-60341500D01*
X41530000Y-60044500D01*
X41530000Y-60043500D01*
X41297000Y-59810500D01*
X41296000Y-59810500D01*
X40999000Y-59636500D01*
X40996000Y-59635500D01*
X40676000Y-59550500D01*
X40669000Y-59549500D01*
X40331000Y-59549500D01*
X40324000Y-59550500D01*
X40004000Y-59635500D01*
X40001000Y-59636500D01*
X39703000Y-59810500D01*
X39470000Y-60043500D01*
X39470000Y-60044500D01*
X39296000Y-60341500D01*
X39295000Y-60344500D01*
X39210000Y-60664500D01*
X39209000Y-60671500D01*
X35291000Y-60671500D01*
X35290000Y-60664500D01*
X35205000Y-60344500D01*
X35204000Y-60341500D01*
X35030000Y-60044500D01*
X35030000Y-60043500D01*
X34797000Y-59810500D01*
X34796000Y-59810500D01*
X34499000Y-59636500D01*
X34496000Y-59635500D01*
X34176000Y-59550500D01*
X34169000Y-59549500D01*
X33831000Y-59549500D01*
X33824000Y-59550500D01*
X33504000Y-59635500D01*
X33501000Y-59636500D01*
X33203000Y-59810500D01*
X32970000Y-60043500D01*
X32970000Y-60044500D01*
X32796000Y-60341500D01*
X32795000Y-60344500D01*
X32710000Y-60664500D01*
X32709000Y-60671500D01*
X25791000Y-60671500D01*
X25790000Y-60664500D01*
X25705000Y-60344500D01*
X25704000Y-60341500D01*
X25530000Y-60044500D01*
X25530000Y-60043500D01*
X25297000Y-59810500D01*
X25296000Y-59810500D01*
X24999000Y-59636500D01*
X24996000Y-59635500D01*
X24676000Y-59550500D01*
X24669000Y-59549500D01*
X24331000Y-59549500D01*
X24324000Y-59550500D01*
X24004000Y-59635500D01*
X24001000Y-59636500D01*
X23703000Y-59810500D01*
X23470000Y-60043500D01*
X23470000Y-60044500D01*
X23296000Y-60341500D01*
X23295000Y-60344500D01*
X23210000Y-60664500D01*
X23209000Y-60671500D01*
X19291000Y-60671500D01*
X19290000Y-60664500D01*
X19205000Y-60344500D01*
X19204000Y-60341500D01*
X19030000Y-60044500D01*
X19030000Y-60043500D01*
X18797000Y-59810500D01*
X18796000Y-59810500D01*
X18499000Y-59636500D01*
X18496000Y-59635500D01*
X18176000Y-59550500D01*
X18169000Y-59549500D01*
X17831000Y-59549500D01*
X17824000Y-59550500D01*
X17504000Y-59635500D01*
X17501000Y-59636500D01*
X17203000Y-59810500D01*
X16970000Y-60043500D01*
X16970000Y-60044500D01*
X16796000Y-60341500D01*
X16795000Y-60344500D01*
X16710000Y-60664500D01*
X16709000Y-60671500D01*
X10600000Y-60671500D01*
X10600000Y-52277500D01*
X13014000Y-52277500D01*
X13014000Y-52403500D01*
X13015000Y-52408500D01*
X13046000Y-52526500D01*
X13047000Y-52528500D01*
X13114000Y-52641500D01*
X13114000Y-52642500D01*
X13198000Y-52726500D01*
X13312000Y-52793500D01*
X13314000Y-52794500D01*
X13432000Y-52825500D01*
X13437000Y-52826500D01*
X13563000Y-52826500D01*
X13568000Y-52825500D01*
X13686000Y-52794500D01*
X13688000Y-52793500D01*
X13801000Y-52726500D01*
X13802000Y-52726500D01*
X13886000Y-52642500D01*
X13886000Y-52641500D01*
X13953000Y-52528500D01*
X13954000Y-52526500D01*
X13985000Y-52408500D01*
X13986000Y-52403500D01*
X13986000Y-52277500D01*
X13985000Y-52272500D01*
X13967398Y-52205500D01*
X14996000Y-52205500D01*
X14996000Y-52476500D01*
X14997000Y-52479500D01*
X15067000Y-52740500D01*
X15071000Y-52750500D01*
X15206000Y-52983500D01*
X15396000Y-53173500D01*
X15399000Y-53175500D01*
X15633000Y-53310500D01*
X15640000Y-53313500D01*
X15901000Y-53383500D01*
X15905000Y-53384500D01*
X16175000Y-53384500D01*
X16179000Y-53383500D01*
X16440000Y-53313500D01*
X16447000Y-53310500D01*
X16681000Y-53175500D01*
X16684000Y-53173500D01*
X16874000Y-52983500D01*
X17009000Y-52750500D01*
X17013000Y-52740500D01*
X17083000Y-52479500D01*
X17084000Y-52476500D01*
X17084000Y-52277500D01*
X29014000Y-52277500D01*
X29014000Y-52403500D01*
X29015000Y-52408500D01*
X29046000Y-52526500D01*
X29047000Y-52528500D01*
X29114000Y-52641500D01*
X29114000Y-52642500D01*
X29198000Y-52726500D01*
X29312000Y-52793500D01*
X29314000Y-52794500D01*
X29432000Y-52825500D01*
X29437000Y-52826500D01*
X29563000Y-52826500D01*
X29568000Y-52825500D01*
X29686000Y-52794500D01*
X29688000Y-52793500D01*
X29801000Y-52726500D01*
X29802000Y-52726500D01*
X29886000Y-52642500D01*
X29886000Y-52641500D01*
X29953000Y-52528500D01*
X29954000Y-52526500D01*
X29985000Y-52408500D01*
X29986000Y-52403500D01*
X29986000Y-52277500D01*
X29985000Y-52272500D01*
X29967398Y-52205500D01*
X30996000Y-52205500D01*
X30996000Y-52476500D01*
X30997000Y-52479500D01*
X31067000Y-52740500D01*
X31071000Y-52750500D01*
X31206000Y-52983500D01*
X31396000Y-53173500D01*
X31399000Y-53175500D01*
X31633000Y-53310500D01*
X31640000Y-53313500D01*
X31901000Y-53383500D01*
X31905000Y-53384500D01*
X32175000Y-53384500D01*
X32179000Y-53383500D01*
X32440000Y-53313500D01*
X32447000Y-53310500D01*
X32681000Y-53175500D01*
X32684000Y-53173500D01*
X32874000Y-52983500D01*
X33009000Y-52750500D01*
X33013000Y-52740500D01*
X33083000Y-52479500D01*
X33084000Y-52476500D01*
X33084000Y-52205500D01*
X33083000Y-52201500D01*
X33015000Y-51945500D01*
X33010000Y-51933500D01*
X32875000Y-51699500D01*
X32874000Y-51697500D01*
X32684000Y-51507500D01*
X32681000Y-51505500D01*
X32447000Y-51370500D01*
X32440000Y-51367500D01*
X32179000Y-51297500D01*
X32176000Y-51296500D01*
X31904000Y-51296500D01*
X31901000Y-51297500D01*
X31640000Y-51367500D01*
X31633000Y-51370500D01*
X31399000Y-51505500D01*
X31396000Y-51507500D01*
X31206000Y-51697500D01*
X31205000Y-51699500D01*
X31070000Y-51933500D01*
X31065000Y-51945500D01*
X30997000Y-52201500D01*
X30996000Y-52205500D01*
X29967398Y-52205500D01*
X29954000Y-52154500D01*
X29953000Y-52152500D01*
X29886000Y-52039500D01*
X29886000Y-52038500D01*
X29802000Y-51954500D01*
X29801000Y-51954500D01*
X29688000Y-51887500D01*
X29686000Y-51886500D01*
X29568000Y-51855500D01*
X29563000Y-51854500D01*
X29437000Y-51854500D01*
X29432000Y-51855500D01*
X29314000Y-51886500D01*
X29312000Y-51887500D01*
X29198000Y-51954500D01*
X29114000Y-52038500D01*
X29114000Y-52039500D01*
X29047000Y-52152500D01*
X29046000Y-52154500D01*
X29015000Y-52272500D01*
X29014000Y-52277500D01*
X17084000Y-52277500D01*
X17084000Y-52205500D01*
X17083000Y-52201500D01*
X17015000Y-51945500D01*
X17010000Y-51933500D01*
X16875000Y-51699500D01*
X16874000Y-51697500D01*
X16684000Y-51507500D01*
X16681000Y-51505500D01*
X16447000Y-51370500D01*
X16440000Y-51367500D01*
X16179000Y-51297500D01*
X16176000Y-51296500D01*
X15904000Y-51296500D01*
X15901000Y-51297500D01*
X15640000Y-51367500D01*
X15633000Y-51370500D01*
X15399000Y-51505500D01*
X15396000Y-51507500D01*
X15206000Y-51697500D01*
X15205000Y-51699500D01*
X15070000Y-51933500D01*
X15065000Y-51945500D01*
X14997000Y-52201500D01*
X14996000Y-52205500D01*
X13967398Y-52205500D01*
X13954000Y-52154500D01*
X13953000Y-52152500D01*
X13886000Y-52039500D01*
X13886000Y-52038500D01*
X13802000Y-51954500D01*
X13801000Y-51954500D01*
X13688000Y-51887500D01*
X13686000Y-51886500D01*
X13568000Y-51855500D01*
X13563000Y-51854500D01*
X13437000Y-51854500D01*
X13432000Y-51855500D01*
X13314000Y-51886500D01*
X13312000Y-51887500D01*
X13198000Y-51954500D01*
X13114000Y-52038500D01*
X13114000Y-52039500D01*
X13047000Y-52152500D01*
X13046000Y-52154500D01*
X13015000Y-52272500D01*
X13014000Y-52277500D01*
X10600000Y-52277500D01*
X10600000Y-46198500D01*
X11907000Y-46198500D01*
X11907000Y-46482500D01*
X11908000Y-46487500D01*
X11980000Y-46757500D01*
X11983000Y-46764500D01*
X12125000Y-47011500D01*
X12127000Y-47014500D01*
X12326000Y-47213500D01*
X12329000Y-47215500D01*
X12576000Y-47357500D01*
X12583000Y-47360500D01*
X12853000Y-47432500D01*
X12858000Y-47433500D01*
X13142000Y-47433500D01*
X13147000Y-47432500D01*
X13417000Y-47360500D01*
X13424000Y-47357500D01*
X13671000Y-47215500D01*
X13674000Y-47213500D01*
X13873000Y-47014500D01*
X13875000Y-47011500D01*
X14017000Y-46764500D01*
X14020000Y-46757500D01*
X14092000Y-46487500D01*
X14093000Y-46482500D01*
X14093000Y-46198500D01*
X19527000Y-46198500D01*
X19527000Y-46482500D01*
X19528000Y-46487500D01*
X19600000Y-46757500D01*
X19603000Y-46764500D01*
X19745000Y-47011500D01*
X19747000Y-47014500D01*
X19946000Y-47213500D01*
X19949000Y-47215500D01*
X20196000Y-47357500D01*
X20203000Y-47360500D01*
X20473000Y-47432500D01*
X20478000Y-47433500D01*
X20762000Y-47433500D01*
X20767000Y-47432500D01*
X21037000Y-47360500D01*
X21044000Y-47357500D01*
X21291000Y-47215500D01*
X21294000Y-47213500D01*
X21493000Y-47014500D01*
X21495000Y-47011500D01*
X21637000Y-46764500D01*
X21640000Y-46757500D01*
X21712000Y-46487500D01*
X21713000Y-46482500D01*
X21713000Y-46198500D01*
X28907000Y-46198500D01*
X28907000Y-46482500D01*
X28908000Y-46487500D01*
X28980000Y-46757500D01*
X28983000Y-46764500D01*
X29125000Y-47011500D01*
X29127000Y-47014500D01*
X29326000Y-47213500D01*
X29329000Y-47215500D01*
X29576000Y-47357500D01*
X29583000Y-47360500D01*
X29853000Y-47432500D01*
X29858000Y-47433500D01*
X30142000Y-47433500D01*
X30147000Y-47432500D01*
X30417000Y-47360500D01*
X30424000Y-47357500D01*
X30671000Y-47215500D01*
X30674000Y-47213500D01*
X30873000Y-47014500D01*
X30875000Y-47011500D01*
X31017000Y-46764500D01*
X31020000Y-46757500D01*
X31092000Y-46487500D01*
X31093000Y-46482500D01*
X31093000Y-46198500D01*
X36527000Y-46198500D01*
X36527000Y-46482500D01*
X36528000Y-46487500D01*
X36600000Y-46757500D01*
X36603000Y-46764500D01*
X36745000Y-47011500D01*
X36747000Y-47014500D01*
X36946000Y-47213500D01*
X36949000Y-47215500D01*
X37196000Y-47357500D01*
X37203000Y-47360500D01*
X37473000Y-47432500D01*
X37478000Y-47433500D01*
X37762000Y-47433500D01*
X37767000Y-47432500D01*
X38037000Y-47360500D01*
X38044000Y-47357500D01*
X38291000Y-47215500D01*
X38294000Y-47213500D01*
X38493000Y-47014500D01*
X38495000Y-47011500D01*
X38637000Y-46764500D01*
X38640000Y-46757500D01*
X38712000Y-46487500D01*
X38713000Y-46482500D01*
X38713000Y-46198500D01*
X38712000Y-46193500D01*
X38640000Y-45923500D01*
X38637000Y-45916500D01*
X38495000Y-45669500D01*
X38493000Y-45666500D01*
X38294000Y-45467500D01*
X38291000Y-45465500D01*
X38044000Y-45323500D01*
X38037000Y-45320500D01*
X37767000Y-45248500D01*
X37762000Y-45247500D01*
X37478000Y-45247500D01*
X37473000Y-45248500D01*
X37203000Y-45320500D01*
X37196000Y-45323500D01*
X36949000Y-45465500D01*
X36946000Y-45467500D01*
X36747000Y-45666500D01*
X36745000Y-45669500D01*
X36603000Y-45916500D01*
X36600000Y-45923500D01*
X36528000Y-46193500D01*
X36527000Y-46198500D01*
X31093000Y-46198500D01*
X31092000Y-46193500D01*
X31020000Y-45923500D01*
X31017000Y-45916500D01*
X30875000Y-45669500D01*
X30873000Y-45666500D01*
X30674000Y-45467500D01*
X30671000Y-45465500D01*
X30424000Y-45323500D01*
X30417000Y-45320500D01*
X30147000Y-45248500D01*
X30142000Y-45247500D01*
X29858000Y-45247500D01*
X29853000Y-45248500D01*
X29583000Y-45320500D01*
X29576000Y-45323500D01*
X29329000Y-45465500D01*
X29326000Y-45467500D01*
X29127000Y-45666500D01*
X29125000Y-45669500D01*
X28983000Y-45916500D01*
X28980000Y-45923500D01*
X28908000Y-46193500D01*
X28907000Y-46198500D01*
X21713000Y-46198500D01*
X21712000Y-46193500D01*
X21640000Y-45923500D01*
X21637000Y-45916500D01*
X21495000Y-45669500D01*
X21493000Y-45666500D01*
X21294000Y-45467500D01*
X21291000Y-45465500D01*
X21044000Y-45323500D01*
X21037000Y-45320500D01*
X20767000Y-45248500D01*
X20762000Y-45247500D01*
X20478000Y-45247500D01*
X20473000Y-45248500D01*
X20203000Y-45320500D01*
X20196000Y-45323500D01*
X19949000Y-45465500D01*
X19946000Y-45467500D01*
X19747000Y-45666500D01*
X19745000Y-45669500D01*
X19603000Y-45916500D01*
X19600000Y-45923500D01*
X19528000Y-46193500D01*
X19527000Y-46198500D01*
X14093000Y-46198500D01*
X14092000Y-46193500D01*
X14020000Y-45923500D01*
X14017000Y-45916500D01*
X13875000Y-45669500D01*
X13873000Y-45666500D01*
X13674000Y-45467500D01*
X13671000Y-45465500D01*
X13424000Y-45323500D01*
X13417000Y-45320500D01*
X13147000Y-45248500D01*
X13142000Y-45247500D01*
X12858000Y-45247500D01*
X12853000Y-45248500D01*
X12583000Y-45320500D01*
X12576000Y-45323500D01*
X12329000Y-45465500D01*
X12326000Y-45467500D01*
X12127000Y-45666500D01*
X12125000Y-45669500D01*
X11983000Y-45916500D01*
X11980000Y-45923500D01*
X11908000Y-46193500D01*
X11907000Y-46198500D01*
X10600000Y-46198500D01*
X10600000Y-23223500D01*
X20907000Y-23223500D01*
X20907000Y-23577500D01*
X20908000Y-23582500D01*
X20998000Y-23916500D01*
X20999000Y-23919500D01*
X21179000Y-24228500D01*
X21422000Y-24471500D01*
X21425000Y-24473500D01*
X21566000Y-24554500D01*
X21566000Y-24786500D01*
X21425000Y-24867500D01*
X21422000Y-24869500D01*
X21179000Y-25112500D01*
X20999000Y-25421500D01*
X20998000Y-25424500D01*
X20908000Y-25758500D01*
X20907000Y-25763500D01*
X20907000Y-26117500D01*
X20908000Y-26122500D01*
X20998000Y-26456500D01*
X20999000Y-26459500D01*
X21179000Y-26768500D01*
X21422000Y-27011500D01*
X21425000Y-27013500D01*
X21566000Y-27094500D01*
X21566000Y-27326500D01*
X21425000Y-27407500D01*
X21422000Y-27409500D01*
X21179000Y-27652500D01*
X20999000Y-27961500D01*
X20998000Y-27964500D01*
X20908000Y-28298500D01*
X20907000Y-28303500D01*
X20907000Y-28657500D01*
X20908000Y-28662500D01*
X20998000Y-28996500D01*
X20999000Y-28999500D01*
X21179000Y-29308500D01*
X21422000Y-29551500D01*
X21731000Y-29731500D01*
X21734000Y-29732500D01*
X22068000Y-29822500D01*
X22073000Y-29823500D01*
X22427000Y-29823500D01*
X22432000Y-29822500D01*
X22766000Y-29732500D01*
X22769000Y-29731500D01*
X23078000Y-29551500D01*
X23321000Y-29308500D01*
X23501000Y-28999500D01*
X23502000Y-28996500D01*
X23592000Y-28662500D01*
X23593000Y-28657500D01*
X23593000Y-28303500D01*
X23592000Y-28298500D01*
X23502000Y-27964500D01*
X23501000Y-27961500D01*
X23321000Y-27652500D01*
X23078000Y-27409500D01*
X23075000Y-27407500D01*
X22934000Y-27326500D01*
X22934000Y-27094500D01*
X23075000Y-27013500D01*
X23078000Y-27011500D01*
X23321000Y-26768500D01*
X23501000Y-26459500D01*
X23502000Y-26456500D01*
X23592000Y-26122500D01*
X23593000Y-26117500D01*
X23593000Y-25763500D01*
X23592000Y-25758500D01*
X23502000Y-25424500D01*
X23501000Y-25421500D01*
X23321000Y-25112500D01*
X23078000Y-24869500D01*
X23075000Y-24867500D01*
X22934000Y-24786500D01*
X22934000Y-24554500D01*
X23075000Y-24473500D01*
X23078000Y-24471500D01*
X23321000Y-24228500D01*
X23501000Y-23919500D01*
X23502000Y-23916500D01*
X23592000Y-23582500D01*
X23593000Y-23577500D01*
X23593000Y-23223500D01*
X23592000Y-23218500D01*
X23502000Y-22884500D01*
X23501000Y-22881500D01*
X23321000Y-22572500D01*
X23078000Y-22329500D01*
X22735000Y-22129500D01*
X22735000Y-21898500D01*
X22951000Y-21774500D01*
X22954000Y-21772500D01*
X23162000Y-21564500D01*
X23164000Y-21561500D01*
X23312000Y-21305500D01*
X23315000Y-21298500D01*
X23392000Y-21012500D01*
X23393000Y-21008500D01*
X23393000Y-20711500D01*
X23392000Y-20708500D01*
X23315000Y-20422500D01*
X23312000Y-20415500D01*
X23164000Y-20159500D01*
X23162000Y-20156500D01*
X22954000Y-19948500D01*
X22951000Y-19946500D01*
X22695000Y-19798500D01*
X22687000Y-19795500D01*
X22497000Y-19743500D01*
X22497000Y-19437500D01*
X22687000Y-19385500D01*
X22695000Y-19382500D01*
X22951000Y-19234500D01*
X22954000Y-19232500D01*
X23162000Y-19024500D01*
X23164000Y-19021500D01*
X23312000Y-18765500D01*
X23315000Y-18758500D01*
X23392000Y-18472500D01*
X23393000Y-18468500D01*
X23393000Y-18171500D01*
X23392000Y-18168500D01*
X23385269Y-18143500D01*
X36401000Y-18143500D01*
X36401000Y-18497500D01*
X36402000Y-18502500D01*
X36492000Y-18836500D01*
X36493000Y-18839500D01*
X36673000Y-19148500D01*
X36916000Y-19391500D01*
X36919000Y-19393500D01*
X37060000Y-19474500D01*
X37060000Y-19706500D01*
X36919000Y-19787500D01*
X36916000Y-19789500D01*
X36673000Y-20032500D01*
X36493000Y-20341500D01*
X36492000Y-20344500D01*
X36402000Y-20678500D01*
X36401000Y-20683500D01*
X36401000Y-21037500D01*
X36402000Y-21042500D01*
X36492000Y-21376500D01*
X36493000Y-21379500D01*
X36673000Y-21688500D01*
X36916000Y-21931500D01*
X36919000Y-21933500D01*
X37060000Y-22014500D01*
X37060000Y-22246500D01*
X36919000Y-22327500D01*
X36916000Y-22329500D01*
X36673000Y-22572500D01*
X36493000Y-22881500D01*
X36492000Y-22884500D01*
X36402000Y-23218500D01*
X36401000Y-23223500D01*
X36401000Y-23577500D01*
X36402000Y-23582500D01*
X36492000Y-23916500D01*
X36493000Y-23919500D01*
X36673000Y-24228500D01*
X36916000Y-24471500D01*
X36919000Y-24473500D01*
X37060000Y-24554500D01*
X37060000Y-24786500D01*
X36919000Y-24867500D01*
X36916000Y-24869500D01*
X36673000Y-25112500D01*
X36493000Y-25421500D01*
X36492000Y-25424500D01*
X36402000Y-25758500D01*
X36401000Y-25763500D01*
X36401000Y-26117500D01*
X36402000Y-26122500D01*
X36492000Y-26456500D01*
X36493000Y-26459500D01*
X36673000Y-26768500D01*
X36916000Y-27011500D01*
X36919000Y-27013500D01*
X37060000Y-27094500D01*
X37060000Y-27326500D01*
X36919000Y-27407500D01*
X36916000Y-27409500D01*
X36673000Y-27652500D01*
X36493000Y-27961500D01*
X36492000Y-27964500D01*
X36402000Y-28298500D01*
X36401000Y-28303500D01*
X36401000Y-28657500D01*
X36402000Y-28662500D01*
X36492000Y-28996500D01*
X36493000Y-28999500D01*
X36673000Y-29308500D01*
X36916000Y-29551500D01*
X37225000Y-29731500D01*
X37228000Y-29732500D01*
X37562000Y-29822500D01*
X37567000Y-29823500D01*
X37921000Y-29823500D01*
X37926000Y-29822500D01*
X38260000Y-29732500D01*
X38263000Y-29731500D01*
X38572000Y-29551500D01*
X38815000Y-29308500D01*
X38995000Y-28999500D01*
X38996000Y-28996500D01*
X39086000Y-28662500D01*
X39087000Y-28657500D01*
X39087000Y-28303500D01*
X39086000Y-28298500D01*
X38996000Y-27964500D01*
X38995000Y-27961500D01*
X38815000Y-27652500D01*
X38572000Y-27409500D01*
X38569000Y-27407500D01*
X38428000Y-27326500D01*
X38428000Y-27094500D01*
X38569000Y-27013500D01*
X38572000Y-27011500D01*
X38815000Y-26768500D01*
X38995000Y-26459500D01*
X38996000Y-26456500D01*
X39086000Y-26122500D01*
X39087000Y-26117500D01*
X39087000Y-25763500D01*
X39086000Y-25758500D01*
X38996000Y-25424500D01*
X38995000Y-25421500D01*
X38815000Y-25112500D01*
X38572000Y-24869500D01*
X38569000Y-24867500D01*
X38428000Y-24786500D01*
X38428000Y-24554500D01*
X38569000Y-24473500D01*
X38572000Y-24471500D01*
X38815000Y-24228500D01*
X38995000Y-23919500D01*
X38996000Y-23916500D01*
X39086000Y-23582500D01*
X39087000Y-23577500D01*
X39087000Y-23223500D01*
X39086000Y-23218500D01*
X38996000Y-22884500D01*
X38995000Y-22881500D01*
X38815000Y-22572500D01*
X38572000Y-22329500D01*
X38569000Y-22327500D01*
X38428000Y-22246500D01*
X38428000Y-22014500D01*
X38569000Y-21933500D01*
X38572000Y-21931500D01*
X38815000Y-21688500D01*
X38995000Y-21379500D01*
X38996000Y-21376500D01*
X39086000Y-21042500D01*
X39087000Y-21037500D01*
X39087000Y-20683500D01*
X39086000Y-20678500D01*
X38996000Y-20344500D01*
X38995000Y-20341500D01*
X38815000Y-20032500D01*
X38572000Y-19789500D01*
X38569000Y-19787500D01*
X38428000Y-19706500D01*
X38428000Y-19474500D01*
X38569000Y-19393500D01*
X38572000Y-19391500D01*
X38815000Y-19148500D01*
X38995000Y-18839500D01*
X38996000Y-18836500D01*
X39086000Y-18502500D01*
X39087000Y-18497500D01*
X39087000Y-18143500D01*
X39086000Y-18138500D01*
X38996000Y-17804500D01*
X38995000Y-17801500D01*
X38815000Y-17492500D01*
X38572000Y-17249500D01*
X38263000Y-17069500D01*
X38260000Y-17068500D01*
X37926000Y-16978500D01*
X37921000Y-16977500D01*
X37567000Y-16977500D01*
X37562000Y-16978500D01*
X37228000Y-17068500D01*
X37225000Y-17069500D01*
X36916000Y-17249500D01*
X36673000Y-17492500D01*
X36493000Y-17801500D01*
X36492000Y-17804500D01*
X36402000Y-18138500D01*
X36401000Y-18143500D01*
X23385269Y-18143500D01*
X23315000Y-17882500D01*
X23312000Y-17875500D01*
X23164000Y-17619500D01*
X23162000Y-17616500D01*
X22954000Y-17408500D01*
X22951000Y-17406500D01*
X22695000Y-17258500D01*
X22687000Y-17255500D01*
X22497000Y-17203500D01*
X22497000Y-16897500D01*
X22687000Y-16845500D01*
X22695000Y-16842500D01*
X22951000Y-16694500D01*
X22954000Y-16692500D01*
X23162000Y-16484500D01*
X23164000Y-16481500D01*
X23312000Y-16225500D01*
X23315000Y-16218500D01*
X23392000Y-15932500D01*
X23393000Y-15928500D01*
X23393000Y-15716500D01*
X37248000Y-15716500D01*
X37248000Y-15844500D01*
X37249000Y-15849500D01*
X37281000Y-15968500D01*
X37284000Y-15975500D01*
X37347000Y-16084500D01*
X37349000Y-16087500D01*
X37437000Y-16175500D01*
X37440000Y-16177500D01*
X37549000Y-16240500D01*
X37556000Y-16243500D01*
X37675000Y-16275500D01*
X37680000Y-16276500D01*
X37808000Y-16276500D01*
X37813000Y-16275500D01*
X37932000Y-16243500D01*
X37939000Y-16240500D01*
X38048000Y-16177500D01*
X38051000Y-16175500D01*
X38139000Y-16087500D01*
X38141000Y-16084500D01*
X38204000Y-15975500D01*
X38207000Y-15968500D01*
X38239000Y-15849500D01*
X38240000Y-15844500D01*
X38240000Y-15716500D01*
X38239000Y-15711500D01*
X38207000Y-15592500D01*
X38204000Y-15585500D01*
X38141000Y-15476500D01*
X38139000Y-15473500D01*
X38051000Y-15385500D01*
X38048000Y-15383500D01*
X37939000Y-15320500D01*
X37932000Y-15317500D01*
X37813000Y-15285500D01*
X37808000Y-15284500D01*
X37680000Y-15284500D01*
X37675000Y-15285500D01*
X37556000Y-15317500D01*
X37549000Y-15320500D01*
X37440000Y-15383500D01*
X37437000Y-15385500D01*
X37349000Y-15473500D01*
X37347000Y-15476500D01*
X37284000Y-15585500D01*
X37281000Y-15592500D01*
X37249000Y-15711500D01*
X37248000Y-15716500D01*
X23393000Y-15716500D01*
X23393000Y-15631500D01*
X23392000Y-15628500D01*
X23316000Y-15344500D01*
X23312000Y-15335500D01*
X23164000Y-15079500D01*
X23162000Y-15076500D01*
X22954000Y-14868500D01*
X22951000Y-14866500D01*
X22640000Y-14687500D01*
X22719000Y-14390500D01*
X23400000Y-14390500D01*
X23400000Y-13063500D01*
X36401000Y-13063500D01*
X36401000Y-13417500D01*
X36402000Y-13422500D01*
X36492000Y-13756500D01*
X36493000Y-13759500D01*
X36673000Y-14068500D01*
X36916000Y-14311500D01*
X37225000Y-14491500D01*
X37228000Y-14492500D01*
X37562000Y-14582500D01*
X37567000Y-14583500D01*
X37921000Y-14583500D01*
X37926000Y-14582500D01*
X38260000Y-14492500D01*
X38263000Y-14491500D01*
X38572000Y-14311500D01*
X38815000Y-14068500D01*
X38995000Y-13759500D01*
X38996000Y-13756500D01*
X39086000Y-13422500D01*
X39087000Y-13417500D01*
X39087000Y-13063500D01*
X39086000Y-13058500D01*
X38996000Y-12724500D01*
X38995000Y-12721500D01*
X38815000Y-12412500D01*
X38572000Y-12169500D01*
X38263000Y-11989500D01*
X38260000Y-11988500D01*
X37926000Y-11898500D01*
X37921000Y-11897500D01*
X37567000Y-11897500D01*
X37562000Y-11898500D01*
X37228000Y-11988500D01*
X37225000Y-11989500D01*
X36916000Y-12169500D01*
X36673000Y-12412500D01*
X36493000Y-12721500D01*
X36492000Y-12724500D01*
X36402000Y-13058500D01*
X36401000Y-13063500D01*
X23400000Y-13063500D01*
X23400000Y-12090500D01*
X21100000Y-12090500D01*
X21100000Y-14390500D01*
X21781000Y-14390500D01*
X21860000Y-14687500D01*
X21549000Y-14866500D01*
X21546000Y-14868500D01*
X21338000Y-15076500D01*
X21336000Y-15079500D01*
X21188000Y-15335500D01*
X21184000Y-15344500D01*
X21108000Y-15628500D01*
X21107000Y-15631500D01*
X21107000Y-15928500D01*
X21108000Y-15932500D01*
X21185000Y-16218500D01*
X21188000Y-16225500D01*
X21336000Y-16481500D01*
X21338000Y-16484500D01*
X21546000Y-16692500D01*
X21549000Y-16694500D01*
X21805000Y-16842500D01*
X21813000Y-16845500D01*
X22003000Y-16897500D01*
X22003000Y-17203500D01*
X21813000Y-17255500D01*
X21805000Y-17258500D01*
X21549000Y-17406500D01*
X21546000Y-17408500D01*
X21338000Y-17616500D01*
X21336000Y-17619500D01*
X21188000Y-17875500D01*
X21185000Y-17882500D01*
X21108000Y-18168500D01*
X21107000Y-18171500D01*
X21107000Y-18468500D01*
X21108000Y-18472500D01*
X21185000Y-18758500D01*
X21188000Y-18765500D01*
X21336000Y-19021500D01*
X21338000Y-19024500D01*
X21546000Y-19232500D01*
X21549000Y-19234500D01*
X21805000Y-19382500D01*
X21813000Y-19385500D01*
X22003000Y-19437500D01*
X22003000Y-19743500D01*
X21813000Y-19795500D01*
X21805000Y-19798500D01*
X21549000Y-19946500D01*
X21546000Y-19948500D01*
X21338000Y-20156500D01*
X21336000Y-20159500D01*
X21188000Y-20415500D01*
X21185000Y-20422500D01*
X21108000Y-20708500D01*
X21107000Y-20711500D01*
X21107000Y-21008500D01*
X21108000Y-21012500D01*
X21185000Y-21298500D01*
X21188000Y-21305500D01*
X21336000Y-21561500D01*
X21338000Y-21564500D01*
X21546000Y-21772500D01*
X21549000Y-21774500D01*
X21765000Y-21898500D01*
X21765000Y-22129500D01*
X21422000Y-22329500D01*
X21179000Y-22572500D01*
X20999000Y-22881500D01*
X20998000Y-22884500D01*
X20908000Y-23218500D01*
X20907000Y-23223500D01*
X10600000Y-23223500D01*
X10600000Y-11557500D01*
X10717000Y-11440500D01*
X49283000Y-11440500D01*
X49400000Y-11557500D01*
X49400000Y-70123500D01*
X49283000Y-70240500D01*
G37*
%TD.AperFunction*%
%TD*%
M02*
