%TF.GenerationSoftware,Flux,Flux PCB Export,1*%
%TF.CreationDate,2026-10-01T10:50:12+00:00*%
%TF.ProjectId,input,696e7075-742e-46b6-9963-61645f706362,rev?*%
%TF.SameCoordinates,Original*%
%TF.FileFunction,Legend,Top*%
%TF.FilePolarity,Positive*%
%FSLAX46Y46*%
G04 Gerber Fmt 4.6, Leading zero omitted, Abs format (unit mm)*
G04 Filename: brief*
G04 Build it with Flux! Visit our site at: https://www.flux.ai (Flux) date 2026-10-01 10:50:12*
%MOMM*%
%LPD*%
G01*
G04 APERTURE LIST*
%ADD10C,0.000000*%
%ADD11C,0.120000*%
%ADD12C,0.200000*%
%ADD13C,0.100000*%
%ADD14C,0.050000*%
G04 APERTURE END LIST*
D10*
%TO.C,SW1*%
G36*
X20442604Y-58387142D02*
G01*
X20475244Y-58391437D01*
X20503789Y-58397340D01*
X20531260Y-58405147D01*
X20580460Y-58425257D01*
X20604122Y-58438607D01*
X20628177Y-58454927D01*
X20650163Y-58472960D01*
X20670082Y-58492707D01*
X20686396Y-58512146D01*
X20702364Y-58535159D01*
X20715953Y-58559332D01*
X20726051Y-58581974D01*
X20734677Y-58607613D01*
X20740263Y-58631587D01*
X20743926Y-58658692D01*
X20745000Y-58684000D01*
X20614000Y-58684000D01*
X20610437Y-58641813D01*
X20605984Y-58622453D01*
X20598845Y-58602056D01*
X20590607Y-58585154D01*
X20579210Y-58567521D01*
X20567187Y-58553075D01*
X20553392Y-58539862D01*
X20538040Y-58528308D01*
X20521220Y-58518347D01*
X20502931Y-58509979D01*
X20483173Y-58503206D01*
X20439251Y-58494440D01*
X20390041Y-58492042D01*
X20340102Y-58496199D01*
X20317624Y-58500829D01*
X20296807Y-58507159D01*
X20277651Y-58515190D01*
X20260156Y-58524922D01*
X20242678Y-58537657D01*
X20229033Y-58550412D01*
X20217523Y-58564473D01*
X20208150Y-58579838D01*
X20200912Y-58596509D01*
X20195810Y-58614485D01*
X20192646Y-58635989D01*
X20192112Y-58657675D01*
X20194104Y-58675956D01*
X20198587Y-58693261D01*
X20209979Y-58717387D01*
X20226975Y-58739315D01*
X20249660Y-58759223D01*
X20279715Y-58778321D01*
X20312250Y-58794250D01*
X20350809Y-58809602D01*
X20482916Y-58850758D01*
X20550656Y-58876625D01*
X20584686Y-58892799D01*
X20614339Y-58909638D01*
X20642687Y-58928813D01*
X20665841Y-58947732D01*
X20688762Y-58970895D01*
X20707618Y-58995486D01*
X20722795Y-59021964D01*
X20734375Y-59050649D01*
X20742219Y-59081422D01*
X20746328Y-59114282D01*
X20746633Y-59149813D01*
X20743122Y-59181770D01*
X20734860Y-59215051D01*
X20720471Y-59248953D01*
X20700528Y-59280020D01*
X20677579Y-59305801D01*
X20647125Y-59331491D01*
X20612578Y-59353644D01*
X20574250Y-59371484D01*
X20532141Y-59385011D01*
X20486250Y-59394226D01*
X20436578Y-59399127D01*
X20380855Y-59399533D01*
X20331496Y-59394963D01*
X20286811Y-59386251D01*
X20240842Y-59372235D01*
X20196852Y-59353433D01*
X20159557Y-59332284D01*
X20128713Y-59309671D01*
X20103500Y-59286187D01*
X20081588Y-59260311D01*
X20061918Y-59230093D01*
X20047750Y-59200469D01*
X20037543Y-59169359D01*
X20031297Y-59136764D01*
X20029000Y-59100000D01*
X20160000Y-59100000D01*
X20162723Y-59134630D01*
X20170893Y-59166206D01*
X20184508Y-59194729D01*
X20203570Y-59220199D01*
X20228073Y-59242612D01*
X20259409Y-59262519D01*
X20292363Y-59276547D01*
X20329031Y-59286284D01*
X20372671Y-59291972D01*
X20418801Y-59292744D01*
X20459926Y-59289298D01*
X20498891Y-59281146D01*
X20530500Y-59269375D01*
X20557516Y-59253584D01*
X20579691Y-59234160D01*
X20597617Y-59210045D01*
X20606211Y-59192076D01*
X20612562Y-59170563D01*
X20615664Y-59147217D01*
X20615552Y-59122781D01*
X20612402Y-59100008D01*
X20606923Y-59080945D01*
X20598021Y-59061781D01*
X20586105Y-59044508D01*
X20572657Y-59030445D01*
X20558305Y-59019125D01*
X20515219Y-58994750D01*
X20456117Y-58970375D01*
X20381000Y-58946000D01*
X20298241Y-58918948D01*
X20259684Y-58903369D01*
X20224765Y-58886920D01*
X20193484Y-58869602D01*
X20165843Y-58851413D01*
X20144327Y-58834514D01*
X20123239Y-58814406D01*
X20105136Y-58792961D01*
X20090078Y-58770250D01*
X20078066Y-58746273D01*
X20069099Y-58721031D01*
X20063177Y-58694523D01*
X20060301Y-58666750D01*
X20060574Y-58636113D01*
X20063878Y-58608484D01*
X20070121Y-58582074D01*
X20079300Y-58556883D01*
X20091417Y-58532910D01*
X20108561Y-58507397D01*
X20126920Y-58486015D01*
X20151085Y-58463416D01*
X20175014Y-58445284D01*
X20204000Y-58427750D01*
X20231625Y-58414688D01*
X20261000Y-58404000D01*
X20296139Y-58394815D01*
X20329232Y-58389175D01*
X20368555Y-58385668D01*
X20405514Y-58385086D01*
X20442604Y-58387142D01*
G37*
G36*
X21127000Y-59075000D02*
G01*
X21146000Y-59205000D01*
X21173000Y-59088000D01*
X21369000Y-58399000D01*
X21479000Y-58399000D01*
X21669000Y-59088000D01*
X21696000Y-59207000D01*
X21717000Y-59074000D01*
X21871000Y-58399000D01*
X22001000Y-58399000D01*
X21762000Y-59386000D01*
X21643000Y-59386000D01*
X21440000Y-58666000D01*
X21424000Y-58591000D01*
X21409000Y-58666000D01*
X21198000Y-59386000D01*
X21079000Y-59386000D01*
X20840000Y-58399000D01*
X20971000Y-58399000D01*
X21127000Y-59075000D01*
G37*
G36*
X22525000Y-59386000D02*
G01*
X22399000Y-59386000D01*
X22399000Y-58550000D01*
X22146000Y-58643000D01*
X22146000Y-58529000D01*
X22506000Y-58394000D01*
X22525000Y-58394000D01*
X22525000Y-59386000D01*
G37*
D11*
X19000000Y-66340500D02*
X23500000Y-66340500D01*
X17750000Y-62340500D02*
X17750000Y-63840500D01*
X23500000Y-59840500D02*
X19000000Y-59840500D01*
X24750000Y-63840500D02*
X24750000Y-62340500D01*
D10*
%TO.C,LED2*%
G36*
X28815490Y-48196165D02*
G01*
X29409850Y-48196165D01*
X29409850Y-48330785D01*
X28650390Y-48330785D01*
X28650390Y-47077295D01*
X28815490Y-47077295D01*
X28815490Y-48196165D01*
G37*
G36*
X30386480Y-47213185D02*
G01*
X29764180Y-47213185D01*
X29764180Y-47615775D01*
X30307740Y-47615775D01*
X30307740Y-47751665D01*
X29764180Y-47751665D01*
X29764180Y-48196165D01*
X30395370Y-48196165D01*
X30395370Y-48330785D01*
X29599080Y-48330785D01*
X29599080Y-47077295D01*
X30386480Y-47077295D01*
X30386480Y-47213185D01*
G37*
G36*
X30959280Y-47077313D02*
G01*
X31024022Y-47080759D01*
X31076349Y-47088341D01*
X31130864Y-47101490D01*
X31182701Y-47119729D01*
X31227865Y-47140919D01*
X31277961Y-47171250D01*
X31320087Y-47203754D01*
X31358195Y-47240545D01*
X31394943Y-47285238D01*
X31424679Y-47330958D01*
X31452237Y-47385066D01*
X31474329Y-47442613D01*
X31489793Y-47498617D01*
X31501204Y-47562412D01*
X31507060Y-47629456D01*
X31507739Y-47758076D01*
X31504123Y-47822407D01*
X31495684Y-47883613D01*
X31481101Y-47946392D01*
X31462616Y-48001086D01*
X31437153Y-48056807D01*
X31411539Y-48100473D01*
X31382473Y-48140463D01*
X31349956Y-48176776D01*
X31317400Y-48206598D01*
X31278293Y-48235892D01*
X31235752Y-48261580D01*
X31190407Y-48283599D01*
X31147036Y-48299970D01*
X31106253Y-48311735D01*
X31068609Y-48319831D01*
X31029656Y-48325705D01*
X30984268Y-48329656D01*
X30947820Y-48330785D01*
X30601110Y-48330785D01*
X30601110Y-48196165D01*
X30601110Y-47213185D01*
X30766210Y-47213185D01*
X30766210Y-48196165D01*
X30946133Y-48196136D01*
X30980869Y-48194737D01*
X31035489Y-48187742D01*
X31066296Y-48180747D01*
X31090844Y-48173315D01*
X31127991Y-48158392D01*
X31166651Y-48137145D01*
X31201996Y-48111177D01*
X31230631Y-48084130D01*
X31259440Y-48049470D01*
X31281526Y-48015314D01*
X31300278Y-47978023D01*
X31317390Y-47932322D01*
X31331454Y-47876890D01*
X31340310Y-47816559D01*
X31343826Y-47758072D01*
X31344036Y-47658660D01*
X31341611Y-47600924D01*
X31336124Y-47552724D01*
X31327502Y-47507460D01*
X31314054Y-47460049D01*
X31300851Y-47425744D01*
X31282823Y-47389291D01*
X31264477Y-47359804D01*
X31243730Y-47332565D01*
X31220780Y-47308126D01*
X31192096Y-47283619D01*
X31164849Y-47265171D01*
X31131253Y-47247510D01*
X31104338Y-47236660D01*
X31071074Y-47226598D01*
X31035805Y-47219332D01*
X31003978Y-47215328D01*
X30959250Y-47213185D01*
X30766210Y-47213185D01*
X30601110Y-47213185D01*
X30601110Y-47077295D01*
X30959280Y-47077313D01*
G37*
G36*
X32144914Y-47060944D02*
G01*
X32199819Y-47067574D01*
X32250371Y-47079607D01*
X32296572Y-47097042D01*
X32338420Y-47119880D01*
X32372688Y-47145329D01*
X32405676Y-47177903D01*
X32432688Y-47214182D01*
X32453698Y-47254138D01*
X32467588Y-47293652D01*
X32476518Y-47336204D01*
X32480611Y-47386521D01*
X32479787Y-47419367D01*
X32474943Y-47455379D01*
X32465946Y-47492664D01*
X32452797Y-47531222D01*
X32435496Y-47571052D01*
X32414042Y-47612155D01*
X32392993Y-47647379D01*
X32363926Y-47690814D01*
X32318712Y-47750708D01*
X32266117Y-47812863D01*
X31907940Y-48201245D01*
X32537860Y-48201245D01*
X32537860Y-48330785D01*
X31716170Y-48330785D01*
X31716170Y-48216485D01*
X32150510Y-47733885D01*
X32214506Y-47657685D01*
X32256731Y-47600386D01*
X32286048Y-47551794D01*
X32296839Y-47528015D01*
X32305529Y-47503936D01*
X32312119Y-47479556D01*
X32316607Y-47454877D01*
X32319107Y-47427612D01*
X32319192Y-47401760D01*
X32317010Y-47375585D01*
X32312517Y-47350816D01*
X32305714Y-47327454D01*
X32296600Y-47305498D01*
X32285175Y-47284949D01*
X32271440Y-47265806D01*
X32255318Y-47248011D01*
X32237232Y-47232245D01*
X32219849Y-47220339D01*
X32198822Y-47209316D01*
X32178825Y-47201627D01*
X32154857Y-47195348D01*
X32129332Y-47191581D01*
X32105336Y-47190341D01*
X32073238Y-47191377D01*
X32045894Y-47194532D01*
X32020216Y-47199790D01*
X31996205Y-47207152D01*
X31973861Y-47216618D01*
X31953184Y-47228187D01*
X31934173Y-47241859D01*
X31916830Y-47257635D01*
X31901650Y-47275594D01*
X31888493Y-47295179D01*
X31877361Y-47316392D01*
X31868253Y-47339232D01*
X31861168Y-47363700D01*
X31856108Y-47389794D01*
X31853072Y-47417516D01*
X31852060Y-47446865D01*
X31692040Y-47446865D01*
X31695342Y-47389044D01*
X31704073Y-47339931D01*
X31718261Y-47294104D01*
X31740171Y-47247491D01*
X31768684Y-47204855D01*
X31800335Y-47169545D01*
X31840554Y-47135462D01*
X31880967Y-47109938D01*
X31929648Y-47087878D01*
X31977744Y-47073293D01*
X32029499Y-47063917D01*
X32084912Y-47059749D01*
X32144914Y-47060944D01*
G37*
D12*
X27300000Y-52340500D02*
X27313053Y-52341356D01*
X27313053Y-52341356D02*
X27325882Y-52343907D01*
X27325882Y-52343907D02*
X27338268Y-52348112D01*
X27338268Y-52348112D02*
X27350000Y-52353897D01*
X27350000Y-52353897D02*
X27360876Y-52361165D01*
X27360876Y-52361165D02*
X27370711Y-52369789D01*
X27370711Y-52369789D02*
X27379335Y-52379624D01*
X27379335Y-52379624D02*
X27386603Y-52390500D01*
X27386603Y-52390500D02*
X27392388Y-52402232D01*
X27392388Y-52402232D02*
X27396593Y-52414618D01*
X27396593Y-52414618D02*
X27399144Y-52427447D01*
X27399144Y-52427447D02*
X27400000Y-52440500D01*
X27400000Y-52440500D02*
X27399144Y-52453553D01*
X27399144Y-52453553D02*
X27396593Y-52466382D01*
X27396593Y-52466382D02*
X27392388Y-52478768D01*
X27392388Y-52478768D02*
X27386603Y-52490500D01*
X27386603Y-52490500D02*
X27379335Y-52501376D01*
X27379335Y-52501376D02*
X27370711Y-52511211D01*
X27370711Y-52511211D02*
X27360876Y-52519835D01*
X27360876Y-52519835D02*
X27350000Y-52527103D01*
X27350000Y-52527103D02*
X27338268Y-52532888D01*
X27338268Y-52532888D02*
X27325882Y-52537093D01*
X27325882Y-52537093D02*
X27313053Y-52539644D01*
X27313053Y-52539644D02*
X27300000Y-52540500D01*
X27300000Y-52540500D02*
X27286947Y-52539644D01*
X27286947Y-52539644D02*
X27274118Y-52537093D01*
X27274118Y-52537093D02*
X27261732Y-52532888D01*
X27261732Y-52532888D02*
X27250000Y-52527103D01*
X27250000Y-52527103D02*
X27239124Y-52519835D01*
X27239124Y-52519835D02*
X27229289Y-52511211D01*
X27229289Y-52511211D02*
X27220665Y-52501376D01*
X27220665Y-52501376D02*
X27213397Y-52490500D01*
X27213397Y-52490500D02*
X27207612Y-52478768D01*
X27207612Y-52478768D02*
X27203407Y-52466382D01*
X27203407Y-52466382D02*
X27200856Y-52453553D01*
X27200856Y-52453553D02*
X27200000Y-52440500D01*
X27200000Y-52440500D02*
X27200856Y-52427447D01*
X27200856Y-52427447D02*
X27203407Y-52414618D01*
X27203407Y-52414618D02*
X27207612Y-52402232D01*
X27207612Y-52402232D02*
X27213397Y-52390500D01*
X27213397Y-52390500D02*
X27220665Y-52379624D01*
X27220665Y-52379624D02*
X27229289Y-52369789D01*
X27229289Y-52369789D02*
X27239124Y-52361165D01*
X27239124Y-52361165D02*
X27250000Y-52353897D01*
X27250000Y-52353897D02*
X27261732Y-52348112D01*
X27261732Y-52348112D02*
X27274118Y-52343907D01*
X27274118Y-52343907D02*
X27286947Y-52341356D01*
X27286947Y-52341356D02*
X27300000Y-52340500D01*
D13*
X27920000Y-52340500D02*
X27944382Y-51968500D01*
X27944382Y-51968500D02*
X28017111Y-51602866D01*
X28017111Y-51602866D02*
X28136943Y-51249852D01*
X28136943Y-51249852D02*
X28301828Y-50915500D01*
X28301828Y-50915500D02*
X28508943Y-50605530D01*
X28508943Y-50605530D02*
X28754746Y-50325246D01*
X28754746Y-50325246D02*
X29035030Y-50079443D01*
X29035030Y-50079443D02*
X29345000Y-49872328D01*
X29345000Y-49872328D02*
X29679352Y-49707443D01*
X29679352Y-49707443D02*
X30032366Y-49587611D01*
X30032366Y-49587611D02*
X30398000Y-49514882D01*
X30398000Y-49514882D02*
X30770000Y-49490500D01*
X30770000Y-49490500D02*
X31142000Y-49514882D01*
X31142000Y-49514882D02*
X31507634Y-49587611D01*
X31507634Y-49587611D02*
X31860648Y-49707443D01*
X31860648Y-49707443D02*
X32195000Y-49872328D01*
X32195000Y-49872328D02*
X32504970Y-50079443D01*
X32504970Y-50079443D02*
X32785254Y-50325246D01*
X32785254Y-50325246D02*
X33031057Y-50605530D01*
X33031057Y-50605530D02*
X33238172Y-50915500D01*
X33238172Y-50915500D02*
X33403057Y-51249852D01*
X33403057Y-51249852D02*
X33522889Y-51602866D01*
X33522889Y-51602866D02*
X33595618Y-51968500D01*
X33595618Y-51968500D02*
X33620000Y-52340500D01*
D12*
X27920000Y-52340500D02*
X27944382Y-51968500D01*
X27944382Y-51968500D02*
X28017111Y-51602866D01*
X28017111Y-51602866D02*
X28136943Y-51249852D01*
X28136943Y-51249852D02*
X28301828Y-50915500D01*
X28301828Y-50915500D02*
X28508943Y-50605530D01*
X28508943Y-50605530D02*
X28754746Y-50325246D01*
X28754746Y-50325246D02*
X29035030Y-50079443D01*
X29035030Y-50079443D02*
X29345000Y-49872328D01*
X29345000Y-49872328D02*
X29679352Y-49707443D01*
X29679352Y-49707443D02*
X30032366Y-49587611D01*
X30032366Y-49587611D02*
X30398000Y-49514882D01*
X30398000Y-49514882D02*
X30770000Y-49490500D01*
X30770000Y-49490500D02*
X31142000Y-49514882D01*
X31142000Y-49514882D02*
X31507634Y-49587611D01*
X31507634Y-49587611D02*
X31860648Y-49707443D01*
X31860648Y-49707443D02*
X32195000Y-49872328D01*
X32195000Y-49872328D02*
X32504970Y-50079443D01*
X32504970Y-50079443D02*
X32785254Y-50325246D01*
X32785254Y-50325246D02*
X33031057Y-50605530D01*
X33031057Y-50605530D02*
X33238172Y-50915500D01*
X33238172Y-50915500D02*
X33403057Y-51249852D01*
X33403057Y-51249852D02*
X33522889Y-51602866D01*
X33522889Y-51602866D02*
X33595618Y-51968500D01*
X33595618Y-51968500D02*
X33620000Y-52340500D01*
D13*
X33620000Y-52340500D02*
X33595618Y-52712500D01*
X33595618Y-52712500D02*
X33522889Y-53078134D01*
X33522889Y-53078134D02*
X33403057Y-53431148D01*
X33403057Y-53431148D02*
X33238172Y-53765500D01*
X33238172Y-53765500D02*
X33031057Y-54075470D01*
X33031057Y-54075470D02*
X32785254Y-54355754D01*
X32785254Y-54355754D02*
X32504970Y-54601557D01*
X32504970Y-54601557D02*
X32195000Y-54808672D01*
X32195000Y-54808672D02*
X31860648Y-54973557D01*
X31860648Y-54973557D02*
X31507634Y-55093389D01*
X31507634Y-55093389D02*
X31142000Y-55166118D01*
X31142000Y-55166118D02*
X30770000Y-55190500D01*
X30770000Y-55190500D02*
X30398000Y-55166118D01*
X30398000Y-55166118D02*
X30032366Y-55093389D01*
X30032366Y-55093389D02*
X29679352Y-54973557D01*
X29679352Y-54973557D02*
X29345000Y-54808672D01*
X29345000Y-54808672D02*
X29035030Y-54601557D01*
X29035030Y-54601557D02*
X28754746Y-54355754D01*
X28754746Y-54355754D02*
X28508943Y-54075470D01*
X28508943Y-54075470D02*
X28301828Y-53765500D01*
X28301828Y-53765500D02*
X28136943Y-53431148D01*
X28136943Y-53431148D02*
X28017111Y-53078134D01*
X28017111Y-53078134D02*
X27944382Y-52712500D01*
X27944382Y-52712500D02*
X27920000Y-52340500D01*
D12*
X33620000Y-52340500D02*
X33595618Y-52712500D01*
X33595618Y-52712500D02*
X33522889Y-53078134D01*
X33522889Y-53078134D02*
X33403057Y-53431148D01*
X33403057Y-53431148D02*
X33238172Y-53765500D01*
X33238172Y-53765500D02*
X33031057Y-54075470D01*
X33031057Y-54075470D02*
X32785254Y-54355754D01*
X32785254Y-54355754D02*
X32504970Y-54601557D01*
X32504970Y-54601557D02*
X32195000Y-54808672D01*
X32195000Y-54808672D02*
X31860648Y-54973557D01*
X31860648Y-54973557D02*
X31507634Y-55093389D01*
X31507634Y-55093389D02*
X31142000Y-55166118D01*
X31142000Y-55166118D02*
X30770000Y-55190500D01*
X30770000Y-55190500D02*
X30398000Y-55166118D01*
X30398000Y-55166118D02*
X30032366Y-55093389D01*
X30032366Y-55093389D02*
X29679352Y-54973557D01*
X29679352Y-54973557D02*
X29345000Y-54808672D01*
X29345000Y-54808672D02*
X29035030Y-54601557D01*
X29035030Y-54601557D02*
X28754746Y-54355754D01*
X28754746Y-54355754D02*
X28508943Y-54075470D01*
X28508943Y-54075470D02*
X28301828Y-53765500D01*
X28301828Y-53765500D02*
X28136943Y-53431148D01*
X28136943Y-53431148D02*
X28017111Y-53078134D01*
X28017111Y-53078134D02*
X27944382Y-52712500D01*
X27944382Y-52712500D02*
X27920000Y-52340500D01*
D10*
%TO.C,LED1*%
G36*
X12964715Y-48196165D02*
G01*
X13559075Y-48196165D01*
X13559075Y-48330785D01*
X12799615Y-48330785D01*
X12799615Y-47077295D01*
X12964715Y-47077295D01*
X12964715Y-48196165D01*
G37*
G36*
X14535705Y-47213185D02*
G01*
X13913405Y-47213185D01*
X13913405Y-47615775D01*
X14456965Y-47615775D01*
X14456965Y-47751665D01*
X13913405Y-47751665D01*
X13913405Y-48196165D01*
X14544595Y-48196165D01*
X14544595Y-48330785D01*
X13748305Y-48330785D01*
X13748305Y-47077295D01*
X14535705Y-47077295D01*
X14535705Y-47213185D01*
G37*
G36*
X15108505Y-47077313D02*
G01*
X15173247Y-47080759D01*
X15225574Y-47088341D01*
X15280089Y-47101490D01*
X15331926Y-47119729D01*
X15377090Y-47140919D01*
X15427186Y-47171250D01*
X15469312Y-47203754D01*
X15507420Y-47240545D01*
X15544168Y-47285238D01*
X15573904Y-47330958D01*
X15601462Y-47385066D01*
X15623554Y-47442613D01*
X15639017Y-47498617D01*
X15650429Y-47562412D01*
X15656285Y-47629456D01*
X15656964Y-47758076D01*
X15653348Y-47822407D01*
X15644909Y-47883613D01*
X15630326Y-47946392D01*
X15611841Y-48001086D01*
X15586378Y-48056807D01*
X15560764Y-48100473D01*
X15531698Y-48140463D01*
X15499181Y-48176776D01*
X15466625Y-48206598D01*
X15427518Y-48235892D01*
X15384977Y-48261580D01*
X15339632Y-48283599D01*
X15296261Y-48299970D01*
X15255477Y-48311735D01*
X15217834Y-48319831D01*
X15178881Y-48325705D01*
X15133493Y-48329656D01*
X15097045Y-48330785D01*
X14750335Y-48330785D01*
X14750335Y-48196165D01*
X14750335Y-47213185D01*
X14915435Y-47213185D01*
X14915435Y-48196165D01*
X15095358Y-48196136D01*
X15130094Y-48194737D01*
X15184714Y-48187742D01*
X15215521Y-48180747D01*
X15240069Y-48173315D01*
X15277216Y-48158392D01*
X15315876Y-48137145D01*
X15351221Y-48111177D01*
X15379856Y-48084130D01*
X15408665Y-48049470D01*
X15430751Y-48015314D01*
X15449503Y-47978023D01*
X15466615Y-47932322D01*
X15480679Y-47876890D01*
X15489535Y-47816559D01*
X15493051Y-47758072D01*
X15493261Y-47658660D01*
X15490836Y-47600924D01*
X15485349Y-47552724D01*
X15476727Y-47507460D01*
X15463279Y-47460049D01*
X15450076Y-47425744D01*
X15432048Y-47389291D01*
X15413702Y-47359804D01*
X15392955Y-47332565D01*
X15370005Y-47308126D01*
X15341321Y-47283619D01*
X15314074Y-47265171D01*
X15280478Y-47247510D01*
X15253563Y-47236660D01*
X15220299Y-47226598D01*
X15185030Y-47219332D01*
X15153203Y-47215328D01*
X15108475Y-47213185D01*
X14915435Y-47213185D01*
X14750335Y-47213185D01*
X14750335Y-47077295D01*
X15108505Y-47077313D01*
G37*
G36*
X16388635Y-48330785D02*
G01*
X16228615Y-48330785D01*
X16228615Y-47269065D01*
X15907305Y-47387175D01*
X15907305Y-47242395D01*
X16364505Y-47070945D01*
X16388635Y-47070945D01*
X16388635Y-48330785D01*
G37*
D12*
X11300000Y-52340500D02*
X11313053Y-52341356D01*
X11313053Y-52341356D02*
X11325882Y-52343907D01*
X11325882Y-52343907D02*
X11338268Y-52348112D01*
X11338268Y-52348112D02*
X11350000Y-52353897D01*
X11350000Y-52353897D02*
X11360876Y-52361165D01*
X11360876Y-52361165D02*
X11370711Y-52369789D01*
X11370711Y-52369789D02*
X11379335Y-52379624D01*
X11379335Y-52379624D02*
X11386603Y-52390500D01*
X11386603Y-52390500D02*
X11392388Y-52402232D01*
X11392388Y-52402232D02*
X11396593Y-52414618D01*
X11396593Y-52414618D02*
X11399144Y-52427447D01*
X11399144Y-52427447D02*
X11400000Y-52440500D01*
X11400000Y-52440500D02*
X11399144Y-52453553D01*
X11399144Y-52453553D02*
X11396593Y-52466382D01*
X11396593Y-52466382D02*
X11392388Y-52478768D01*
X11392388Y-52478768D02*
X11386603Y-52490500D01*
X11386603Y-52490500D02*
X11379335Y-52501376D01*
X11379335Y-52501376D02*
X11370711Y-52511211D01*
X11370711Y-52511211D02*
X11360876Y-52519835D01*
X11360876Y-52519835D02*
X11350000Y-52527103D01*
X11350000Y-52527103D02*
X11338268Y-52532888D01*
X11338268Y-52532888D02*
X11325882Y-52537093D01*
X11325882Y-52537093D02*
X11313053Y-52539644D01*
X11313053Y-52539644D02*
X11300000Y-52540500D01*
X11300000Y-52540500D02*
X11286947Y-52539644D01*
X11286947Y-52539644D02*
X11274118Y-52537093D01*
X11274118Y-52537093D02*
X11261732Y-52532888D01*
X11261732Y-52532888D02*
X11250000Y-52527103D01*
X11250000Y-52527103D02*
X11239124Y-52519835D01*
X11239124Y-52519835D02*
X11229289Y-52511211D01*
X11229289Y-52511211D02*
X11220665Y-52501376D01*
X11220665Y-52501376D02*
X11213397Y-52490500D01*
X11213397Y-52490500D02*
X11207612Y-52478768D01*
X11207612Y-52478768D02*
X11203407Y-52466382D01*
X11203407Y-52466382D02*
X11200856Y-52453553D01*
X11200856Y-52453553D02*
X11200000Y-52440500D01*
X11200000Y-52440500D02*
X11200856Y-52427447D01*
X11200856Y-52427447D02*
X11203407Y-52414618D01*
X11203407Y-52414618D02*
X11207612Y-52402232D01*
X11207612Y-52402232D02*
X11213397Y-52390500D01*
X11213397Y-52390500D02*
X11220665Y-52379624D01*
X11220665Y-52379624D02*
X11229289Y-52369789D01*
X11229289Y-52369789D02*
X11239124Y-52361165D01*
X11239124Y-52361165D02*
X11250000Y-52353897D01*
X11250000Y-52353897D02*
X11261732Y-52348112D01*
X11261732Y-52348112D02*
X11274118Y-52343907D01*
X11274118Y-52343907D02*
X11286947Y-52341356D01*
X11286947Y-52341356D02*
X11300000Y-52340500D01*
D13*
X11920000Y-52340500D02*
X11944382Y-51968500D01*
X11944382Y-51968500D02*
X12017111Y-51602866D01*
X12017111Y-51602866D02*
X12136943Y-51249852D01*
X12136943Y-51249852D02*
X12301828Y-50915500D01*
X12301828Y-50915500D02*
X12508943Y-50605530D01*
X12508943Y-50605530D02*
X12754746Y-50325246D01*
X12754746Y-50325246D02*
X13035030Y-50079443D01*
X13035030Y-50079443D02*
X13345000Y-49872328D01*
X13345000Y-49872328D02*
X13679352Y-49707443D01*
X13679352Y-49707443D02*
X14032366Y-49587611D01*
X14032366Y-49587611D02*
X14398000Y-49514882D01*
X14398000Y-49514882D02*
X14770000Y-49490500D01*
X14770000Y-49490500D02*
X15142000Y-49514882D01*
X15142000Y-49514882D02*
X15507634Y-49587611D01*
X15507634Y-49587611D02*
X15860648Y-49707443D01*
X15860648Y-49707443D02*
X16195000Y-49872328D01*
X16195000Y-49872328D02*
X16504970Y-50079443D01*
X16504970Y-50079443D02*
X16785254Y-50325246D01*
X16785254Y-50325246D02*
X17031057Y-50605530D01*
X17031057Y-50605530D02*
X17238172Y-50915500D01*
X17238172Y-50915500D02*
X17403057Y-51249852D01*
X17403057Y-51249852D02*
X17522889Y-51602866D01*
X17522889Y-51602866D02*
X17595618Y-51968500D01*
X17595618Y-51968500D02*
X17620000Y-52340500D01*
D12*
X11920000Y-52340500D02*
X11944382Y-51968500D01*
X11944382Y-51968500D02*
X12017111Y-51602866D01*
X12017111Y-51602866D02*
X12136943Y-51249852D01*
X12136943Y-51249852D02*
X12301828Y-50915500D01*
X12301828Y-50915500D02*
X12508943Y-50605530D01*
X12508943Y-50605530D02*
X12754746Y-50325246D01*
X12754746Y-50325246D02*
X13035030Y-50079443D01*
X13035030Y-50079443D02*
X13345000Y-49872328D01*
X13345000Y-49872328D02*
X13679352Y-49707443D01*
X13679352Y-49707443D02*
X14032366Y-49587611D01*
X14032366Y-49587611D02*
X14398000Y-49514882D01*
X14398000Y-49514882D02*
X14770000Y-49490500D01*
X14770000Y-49490500D02*
X15142000Y-49514882D01*
X15142000Y-49514882D02*
X15507634Y-49587611D01*
X15507634Y-49587611D02*
X15860648Y-49707443D01*
X15860648Y-49707443D02*
X16195000Y-49872328D01*
X16195000Y-49872328D02*
X16504970Y-50079443D01*
X16504970Y-50079443D02*
X16785254Y-50325246D01*
X16785254Y-50325246D02*
X17031057Y-50605530D01*
X17031057Y-50605530D02*
X17238172Y-50915500D01*
X17238172Y-50915500D02*
X17403057Y-51249852D01*
X17403057Y-51249852D02*
X17522889Y-51602866D01*
X17522889Y-51602866D02*
X17595618Y-51968500D01*
X17595618Y-51968500D02*
X17620000Y-52340500D01*
D13*
X17620000Y-52340500D02*
X17595618Y-52712500D01*
X17595618Y-52712500D02*
X17522889Y-53078134D01*
X17522889Y-53078134D02*
X17403057Y-53431148D01*
X17403057Y-53431148D02*
X17238172Y-53765500D01*
X17238172Y-53765500D02*
X17031057Y-54075470D01*
X17031057Y-54075470D02*
X16785254Y-54355754D01*
X16785254Y-54355754D02*
X16504970Y-54601557D01*
X16504970Y-54601557D02*
X16195000Y-54808672D01*
X16195000Y-54808672D02*
X15860648Y-54973557D01*
X15860648Y-54973557D02*
X15507634Y-55093389D01*
X15507634Y-55093389D02*
X15142000Y-55166118D01*
X15142000Y-55166118D02*
X14770000Y-55190500D01*
X14770000Y-55190500D02*
X14398000Y-55166118D01*
X14398000Y-55166118D02*
X14032366Y-55093389D01*
X14032366Y-55093389D02*
X13679352Y-54973557D01*
X13679352Y-54973557D02*
X13345000Y-54808672D01*
X13345000Y-54808672D02*
X13035030Y-54601557D01*
X13035030Y-54601557D02*
X12754746Y-54355754D01*
X12754746Y-54355754D02*
X12508943Y-54075470D01*
X12508943Y-54075470D02*
X12301828Y-53765500D01*
X12301828Y-53765500D02*
X12136943Y-53431148D01*
X12136943Y-53431148D02*
X12017111Y-53078134D01*
X12017111Y-53078134D02*
X11944382Y-52712500D01*
X11944382Y-52712500D02*
X11920000Y-52340500D01*
D12*
X17620000Y-52340500D02*
X17595618Y-52712500D01*
X17595618Y-52712500D02*
X17522889Y-53078134D01*
X17522889Y-53078134D02*
X17403057Y-53431148D01*
X17403057Y-53431148D02*
X17238172Y-53765500D01*
X17238172Y-53765500D02*
X17031057Y-54075470D01*
X17031057Y-54075470D02*
X16785254Y-54355754D01*
X16785254Y-54355754D02*
X16504970Y-54601557D01*
X16504970Y-54601557D02*
X16195000Y-54808672D01*
X16195000Y-54808672D02*
X15860648Y-54973557D01*
X15860648Y-54973557D02*
X15507634Y-55093389D01*
X15507634Y-55093389D02*
X15142000Y-55166118D01*
X15142000Y-55166118D02*
X14770000Y-55190500D01*
X14770000Y-55190500D02*
X14398000Y-55166118D01*
X14398000Y-55166118D02*
X14032366Y-55093389D01*
X14032366Y-55093389D02*
X13679352Y-54973557D01*
X13679352Y-54973557D02*
X13345000Y-54808672D01*
X13345000Y-54808672D02*
X13035030Y-54601557D01*
X13035030Y-54601557D02*
X12754746Y-54355754D01*
X12754746Y-54355754D02*
X12508943Y-54075470D01*
X12508943Y-54075470D02*
X12301828Y-53765500D01*
X12301828Y-53765500D02*
X12136943Y-53431148D01*
X12136943Y-53431148D02*
X12017111Y-53078134D01*
X12017111Y-53078134D02*
X11944382Y-52712500D01*
X11944382Y-52712500D02*
X11920000Y-52340500D01*
D10*
%TO.C,R1*%
G36*
X16591985Y-43529167D02*
G01*
X16645830Y-43532637D01*
X16690781Y-43539687D01*
X16724000Y-43548000D01*
X16751067Y-43557222D01*
X16779715Y-43569987D01*
X16802783Y-43583105D01*
X16826861Y-43600324D01*
X16848584Y-43619687D01*
X16867568Y-43641210D01*
X16881873Y-43661863D01*
X16895583Y-43687547D01*
X16906482Y-43715449D01*
X16915381Y-43749491D01*
X16920303Y-43782108D01*
X16922478Y-43821455D01*
X16921304Y-43854164D01*
X16916710Y-43886414D01*
X16907845Y-43919447D01*
X16896074Y-43948182D01*
X16882257Y-43973039D01*
X16863782Y-43998630D01*
X16842290Y-44022044D01*
X16820180Y-44041345D01*
X16793432Y-44060042D01*
X16763942Y-44076279D01*
X16734500Y-44089000D01*
X16966500Y-44508000D01*
X16966500Y-44516000D01*
X16826500Y-44516000D01*
X16612500Y-44117000D01*
X16380500Y-44117000D01*
X16380500Y-44516000D01*
X16249500Y-44516000D01*
X16249500Y-44010000D01*
X16380500Y-44010000D01*
X16583521Y-44009988D01*
X16623771Y-44007253D01*
X16655225Y-44001101D01*
X16683865Y-43991433D01*
X16707648Y-43979482D01*
X16730898Y-43963076D01*
X16755304Y-43938285D01*
X16773465Y-43909742D01*
X16785363Y-43877464D01*
X16790818Y-43843968D01*
X16790432Y-43800975D01*
X16783906Y-43763047D01*
X16771448Y-43729843D01*
X16762377Y-43714065D01*
X16751620Y-43699632D01*
X16730438Y-43679066D01*
X16704895Y-43662426D01*
X16675391Y-43649829D01*
X16639188Y-43640785D01*
X16613488Y-43637448D01*
X16585891Y-43636048D01*
X16380500Y-43636000D01*
X16380500Y-44010000D01*
X16249500Y-44010000D01*
X16249500Y-43636000D01*
X16249500Y-43529000D01*
X16591985Y-43529167D01*
G37*
G36*
X17484500Y-44516000D02*
G01*
X17358500Y-44516000D01*
X17358500Y-43680000D01*
X17105500Y-43773000D01*
X17105500Y-43659000D01*
X17465500Y-43524000D01*
X17484500Y-43524000D01*
X17484500Y-44516000D01*
G37*
D11*
X20080000Y-47710500D02*
X20080000Y-47380500D01*
X13540000Y-47710500D02*
X20080000Y-47710500D01*
X13540000Y-47380500D02*
X13540000Y-47710500D01*
X20080000Y-44970500D02*
X20080000Y-45300500D01*
X13540000Y-44970500D02*
X20080000Y-44970500D01*
X13540000Y-45300500D02*
X13540000Y-44970500D01*
D10*
%TO.C,U1*%
G36*
X26448000Y-31719000D02*
G01*
X26684000Y-31341000D01*
X26838000Y-31341000D01*
X26526000Y-31830000D01*
X26845000Y-32328000D01*
X26691000Y-32328000D01*
X26448000Y-31943000D01*
X26204000Y-32328000D01*
X26050000Y-32328000D01*
X26370000Y-31830000D01*
X26057000Y-31341000D01*
X26210000Y-31341000D01*
X26448000Y-31719000D01*
G37*
G36*
X27136000Y-32328000D02*
G01*
X27006000Y-32328000D01*
X27006000Y-31341000D01*
X27136000Y-31341000D01*
X27136000Y-32328000D01*
G37*
G36*
X28148000Y-32328000D02*
G01*
X28014000Y-32328000D01*
X27920000Y-32070000D01*
X27506000Y-32070000D01*
X27413000Y-32328000D01*
X27279000Y-32328000D01*
X27418417Y-31963000D01*
X27546000Y-31963000D01*
X27881000Y-31963000D01*
X27713000Y-31501000D01*
X27546000Y-31963000D01*
X27418417Y-31963000D01*
X27656000Y-31341000D01*
X27770000Y-31341000D01*
X28148000Y-32328000D01*
G37*
G36*
X28672078Y-31327891D02*
G01*
X28710683Y-31332024D01*
X28750978Y-31340373D01*
X28786247Y-31351548D01*
X28819921Y-31366090D01*
X28849150Y-31382233D01*
X28876743Y-31401301D01*
X28902241Y-31422844D01*
X28925640Y-31446829D01*
X28946939Y-31473254D01*
X28966138Y-31502122D01*
X28983238Y-31533430D01*
X28998357Y-31567251D01*
X29011277Y-31603071D01*
X29021804Y-31640649D01*
X29029939Y-31679985D01*
X29035215Y-31716891D01*
X29038804Y-31759566D01*
X29040000Y-31866000D01*
X29037655Y-31927667D01*
X29030621Y-31985793D01*
X29018897Y-32040378D01*
X29002484Y-32091422D01*
X28979998Y-32142222D01*
X28954978Y-32184933D01*
X28923711Y-32225172D01*
X28890365Y-32257574D01*
X28853000Y-32285000D01*
X28809219Y-32308588D01*
X28762253Y-32325913D01*
X28712100Y-32336976D01*
X28658762Y-32341777D01*
X28604579Y-32340287D01*
X28553394Y-32332428D01*
X28505175Y-32318197D01*
X28465784Y-32300709D01*
X28425906Y-32276684D01*
X28392010Y-32250261D01*
X28361414Y-32219796D01*
X28332156Y-32182465D01*
X28308416Y-32143601D01*
X28288056Y-32100826D01*
X28271631Y-32055066D01*
X28257704Y-31998779D01*
X28249160Y-31938757D01*
X28246110Y-31883717D01*
X28246193Y-31788799D01*
X28376079Y-31788799D01*
X28376277Y-31886969D01*
X28378929Y-31932092D01*
X28384390Y-31974367D01*
X28394877Y-32022170D01*
X28408051Y-32061936D01*
X28424691Y-32098186D01*
X28444799Y-32130920D01*
X28458573Y-32148564D01*
X28475863Y-32166965D01*
X28494421Y-32183045D01*
X28511337Y-32194980D01*
X28529185Y-32205211D01*
X28551185Y-32214991D01*
X28574452Y-32222451D01*
X28595406Y-32226998D01*
X28621028Y-32230147D01*
X28647924Y-32230978D01*
X28674609Y-32229563D01*
X28699931Y-32225946D01*
X28723890Y-32220129D01*
X28746484Y-32212110D01*
X28767715Y-32201891D01*
X28787582Y-32189470D01*
X28818467Y-32163056D01*
X28832406Y-32147423D01*
X28847484Y-32127191D01*
X28869750Y-32088063D01*
X28887234Y-32043379D01*
X28899938Y-31993141D01*
X28907382Y-31942209D01*
X28910809Y-31886610D01*
X28911000Y-31802000D01*
X28909267Y-31749290D01*
X28904066Y-31700535D01*
X28894342Y-31651473D01*
X28881862Y-31611024D01*
X28865914Y-31574530D01*
X28846500Y-31541990D01*
X28821609Y-31510969D01*
X28796116Y-31487561D01*
X28764859Y-31467113D01*
X28730234Y-31452219D01*
X28692242Y-31442878D01*
X28650882Y-31439092D01*
X28609173Y-31440859D01*
X28570676Y-31448180D01*
X28535310Y-31461054D01*
X28500300Y-31481433D01*
X28473972Y-31503464D01*
X28452489Y-31527217D01*
X28433501Y-31554436D01*
X28417250Y-31584563D01*
X28403688Y-31617576D01*
X28392816Y-31653478D01*
X28384634Y-31692266D01*
X28378696Y-31738750D01*
X28376079Y-31788799D01*
X28246193Y-31788799D01*
X28246195Y-31786258D01*
X28249125Y-31734625D01*
X28256266Y-31681387D01*
X28266520Y-31634735D01*
X28281596Y-31586893D01*
X28297542Y-31548606D01*
X28315852Y-31512918D01*
X28336643Y-31480243D01*
X28359916Y-31450581D01*
X28385670Y-31423932D01*
X28413906Y-31400297D01*
X28447355Y-31377977D01*
X28479671Y-31360999D01*
X28516743Y-31346385D01*
X28552394Y-31336572D01*
X28589639Y-31330186D01*
X28628480Y-31327227D01*
X28672078Y-31327891D01*
G37*
G36*
X29921485Y-31341167D02*
G01*
X29970625Y-31344136D01*
X30020281Y-31351688D01*
X30049481Y-31358831D01*
X30080567Y-31369222D01*
X30109215Y-31381987D01*
X30132283Y-31395105D01*
X30156361Y-31412324D01*
X30178084Y-31431687D01*
X30197068Y-31453210D01*
X30211373Y-31473863D01*
X30226600Y-31502913D01*
X30237146Y-31531093D01*
X30244881Y-31561491D01*
X30249803Y-31594108D01*
X30251978Y-31633455D01*
X30250804Y-31666164D01*
X30245672Y-31701025D01*
X30237345Y-31731447D01*
X30225574Y-31760182D01*
X30211757Y-31785039D01*
X30193282Y-31810630D01*
X30171790Y-31834044D01*
X30149680Y-31853345D01*
X30122932Y-31872042D01*
X30093442Y-31888279D01*
X30064000Y-31901000D01*
X30296000Y-32320000D01*
X30296000Y-32328000D01*
X30156000Y-32328000D01*
X29942000Y-31929000D01*
X29710000Y-31929000D01*
X29710000Y-32328000D01*
X29579000Y-32328000D01*
X29579000Y-31822000D01*
X29710000Y-31822000D01*
X29913021Y-31821988D01*
X29953271Y-31819253D01*
X29984725Y-31813101D01*
X30013365Y-31803433D01*
X30037148Y-31791482D01*
X30060398Y-31775076D01*
X30084804Y-31750285D01*
X30102965Y-31721742D01*
X30114265Y-31691732D01*
X30120318Y-31655968D01*
X30119932Y-31612975D01*
X30113406Y-31575047D01*
X30100948Y-31541843D01*
X30091877Y-31526065D01*
X30081120Y-31511632D01*
X30059938Y-31491066D01*
X30034395Y-31474426D01*
X30002457Y-31461028D01*
X29968688Y-31452785D01*
X29942988Y-31449448D01*
X29915391Y-31448048D01*
X29710000Y-31448000D01*
X29710000Y-31822000D01*
X29579000Y-31822000D01*
X29579000Y-31448000D01*
X29579000Y-31341000D01*
X29921485Y-31341167D01*
G37*
G36*
X30804045Y-31341020D02*
G01*
X30843178Y-31342622D01*
X30875625Y-31346125D01*
X30931440Y-31357836D01*
X30959102Y-31366945D01*
X30981479Y-31376314D01*
X31006030Y-31389067D01*
X31025741Y-31401559D01*
X31061423Y-31430898D01*
X31079504Y-31450231D01*
X31097473Y-31473880D01*
X31110837Y-31495931D01*
X31122000Y-31519250D01*
X31132063Y-31547453D01*
X31138509Y-31573490D01*
X31142754Y-31600794D01*
X31144910Y-31633552D01*
X31144209Y-31668420D01*
X31141287Y-31697777D01*
X31136211Y-31725555D01*
X31127773Y-31755367D01*
X31118083Y-31779761D01*
X31104373Y-31805707D01*
X31090068Y-31826717D01*
X31071084Y-31848795D01*
X31055000Y-31864000D01*
X31037439Y-31877761D01*
X30998205Y-31901222D01*
X30972786Y-31912407D01*
X30949512Y-31920528D01*
X30898852Y-31932710D01*
X30857258Y-31938293D01*
X30812579Y-31940831D01*
X30565000Y-31941000D01*
X30565000Y-32328000D01*
X30435000Y-32328000D01*
X30435000Y-31835000D01*
X30565000Y-31835000D01*
X30802238Y-31834988D01*
X30839270Y-31832978D01*
X30870250Y-31828109D01*
X30900813Y-31819496D01*
X30928000Y-31807438D01*
X30949957Y-31793357D01*
X30973381Y-31771349D01*
X30992516Y-31743063D01*
X31005608Y-31709942D01*
X31012657Y-31671988D01*
X31013517Y-31627808D01*
X31008078Y-31590018D01*
X30995617Y-31553948D01*
X30977691Y-31524105D01*
X30953660Y-31498143D01*
X30924257Y-31477222D01*
X30890349Y-31461903D01*
X30854638Y-31452661D01*
X30806000Y-31448000D01*
X30565000Y-31448000D01*
X30565000Y-31835000D01*
X30435000Y-31835000D01*
X30435000Y-31448000D01*
X30435000Y-31341000D01*
X30804045Y-31341020D01*
G37*
G36*
X31615594Y-31328125D02*
G01*
X31658826Y-31333346D01*
X31698631Y-31342820D01*
X31735009Y-31356549D01*
X31767961Y-31374531D01*
X31794943Y-31394570D01*
X31820918Y-31420219D01*
X31842188Y-31448785D01*
X31857422Y-31477267D01*
X31869668Y-31511360D01*
X31876699Y-31544865D01*
X31879922Y-31584485D01*
X31879273Y-31610348D01*
X31875459Y-31638704D01*
X31868375Y-31668063D01*
X31858021Y-31698423D01*
X31844398Y-31729785D01*
X31827506Y-31762149D01*
X31788044Y-31824086D01*
X31752443Y-31871246D01*
X31711029Y-31920188D01*
X31429000Y-32226000D01*
X31925000Y-32226000D01*
X31925000Y-32328000D01*
X31278000Y-32328000D01*
X31278000Y-32238000D01*
X31620000Y-31858000D01*
X31670391Y-31798000D01*
X31703639Y-31752883D01*
X31726723Y-31714621D01*
X31742063Y-31676938D01*
X31750785Y-31638309D01*
X31752820Y-31596484D01*
X31747564Y-31556371D01*
X31742208Y-31537976D01*
X31735031Y-31520688D01*
X31726036Y-31504507D01*
X31715221Y-31489434D01*
X31702526Y-31475422D01*
X31688285Y-31463008D01*
X31672819Y-31452571D01*
X31658041Y-31444954D01*
X31640259Y-31438252D01*
X31623423Y-31433955D01*
X31584430Y-31430012D01*
X31537625Y-31433313D01*
X31498500Y-31443250D01*
X31480906Y-31450703D01*
X31464625Y-31459813D01*
X31449656Y-31470578D01*
X31436000Y-31483000D01*
X31424047Y-31497141D01*
X31413688Y-31512563D01*
X31397750Y-31547250D01*
X31388188Y-31587063D01*
X31385000Y-31632000D01*
X31259000Y-31632000D01*
X31261148Y-31590481D01*
X31268475Y-31547800D01*
X31279646Y-31511716D01*
X31296898Y-31475013D01*
X31317094Y-31444363D01*
X31344271Y-31413638D01*
X31375940Y-31386801D01*
X31407762Y-31366703D01*
X31442464Y-31350707D01*
X31480047Y-31338813D01*
X31520511Y-31331020D01*
X31568348Y-31327185D01*
X31615594Y-31328125D01*
G37*
G36*
X32389481Y-31327623D02*
G01*
X32422012Y-31330586D01*
X32452509Y-31335990D01*
X32480972Y-31343834D01*
X32503750Y-31352500D01*
X32528436Y-31364876D01*
X32551089Y-31379693D01*
X32571708Y-31396951D01*
X32600000Y-31429000D01*
X32613421Y-31449101D01*
X32625559Y-31471152D01*
X32645984Y-31521109D01*
X32661277Y-31578871D01*
X32670101Y-31632968D01*
X32675689Y-31698734D01*
X32677000Y-31744000D01*
X32677000Y-31907000D01*
X32674784Y-31979287D01*
X32668925Y-32039209D01*
X32658250Y-32098750D01*
X32643144Y-32151615D01*
X32623606Y-32197804D01*
X32602000Y-32234000D01*
X32576487Y-32265113D01*
X32562175Y-32278692D01*
X32543630Y-32293247D01*
X32523591Y-32305903D01*
X32502057Y-32316661D01*
X32479030Y-32325521D01*
X32454509Y-32332481D01*
X32428493Y-32337544D01*
X32400983Y-32340708D01*
X32371979Y-32341974D01*
X32338096Y-32341077D01*
X32310633Y-32338309D01*
X32284611Y-32333694D01*
X32240649Y-32320441D01*
X32218711Y-32310597D01*
X32198215Y-32298908D01*
X32179161Y-32285373D01*
X32161547Y-32269992D01*
X32137830Y-32243460D01*
X32117248Y-32212799D01*
X32097776Y-32173951D01*
X32083298Y-32134688D01*
X32071707Y-32091352D01*
X32062215Y-32038422D01*
X32056720Y-31986485D01*
X32054131Y-31927000D01*
X32054000Y-31924000D01*
X32054829Y-31726000D01*
X32179000Y-31726000D01*
X32179000Y-31927000D01*
X32181938Y-32001750D01*
X32186757Y-32043137D01*
X32193871Y-32080422D01*
X32203280Y-32113605D01*
X32213711Y-32139964D01*
X32227449Y-32165356D01*
X32243260Y-32186880D01*
X32261463Y-32204692D01*
X32282059Y-32218794D01*
X32309932Y-32230817D01*
X32344016Y-32237813D01*
X32381238Y-32238561D01*
X32415516Y-32233305D01*
X32445832Y-32222107D01*
X32470301Y-32206498D01*
X32491395Y-32185826D01*
X32509124Y-32160070D01*
X32522630Y-32131576D01*
X32533595Y-32098238D01*
X32542020Y-32060055D01*
X32547904Y-32017027D01*
X32552000Y-31941000D01*
X32552000Y-31735000D01*
X32550418Y-31678398D01*
X32546188Y-31631826D01*
X32539300Y-31590334D01*
X32529753Y-31553923D01*
X32517547Y-31522594D01*
X32502667Y-31496317D01*
X32484824Y-31474556D01*
X32463909Y-31457108D01*
X32449000Y-31448250D01*
X32432847Y-31441139D01*
X32399547Y-31432566D01*
X32359051Y-31430071D01*
X32320250Y-31434563D01*
X32290953Y-31443973D01*
X32263341Y-31459959D01*
X32240020Y-31481970D01*
X32220967Y-31509924D01*
X32206682Y-31541090D01*
X32195350Y-31577810D01*
X32186971Y-31620086D01*
X32181545Y-31667916D01*
X32179000Y-31726000D01*
X32054829Y-31726000D01*
X32054897Y-31709859D01*
X32059292Y-31648551D01*
X32067348Y-31592662D01*
X32081850Y-31532750D01*
X32099776Y-31484687D01*
X32111422Y-31461234D01*
X32124386Y-31439733D01*
X32152036Y-31405284D01*
X32172250Y-31386625D01*
X32194474Y-31370502D01*
X32215122Y-31358702D01*
X32241078Y-31347289D01*
X32269044Y-31338413D01*
X32294614Y-31332823D01*
X32321661Y-31329096D01*
X32355082Y-31327104D01*
X32389481Y-31327623D01*
G37*
G36*
X33368000Y-31996000D02*
G01*
X33505000Y-31996000D01*
X33505000Y-32099000D01*
X33368000Y-32099000D01*
X33368000Y-32328000D01*
X33242000Y-32328000D01*
X33242000Y-32099000D01*
X32792000Y-32099000D01*
X32792000Y-32025000D01*
X32810740Y-31996000D01*
X32934000Y-31996000D01*
X33242000Y-31996000D01*
X33242000Y-31512000D01*
X33227000Y-31539000D01*
X32934000Y-31996000D01*
X32810740Y-31996000D01*
X33234000Y-31341000D01*
X33368000Y-31341000D01*
X33368000Y-31996000D01*
G37*
G36*
X33949481Y-31327623D02*
G01*
X33982012Y-31330586D01*
X34012509Y-31335990D01*
X34040972Y-31343834D01*
X34067401Y-31354119D01*
X34088436Y-31364876D01*
X34111089Y-31379693D01*
X34131708Y-31396951D01*
X34160000Y-31429000D01*
X34173421Y-31449101D01*
X34185559Y-31471152D01*
X34205984Y-31521109D01*
X34221277Y-31578871D01*
X34230787Y-31638676D01*
X34235689Y-31698734D01*
X34237000Y-31744000D01*
X34237000Y-31907000D01*
X34234784Y-31979287D01*
X34228138Y-32044897D01*
X34218250Y-32098750D01*
X34203144Y-32151615D01*
X34185566Y-32193881D01*
X34162000Y-32234000D01*
X34136487Y-32265113D01*
X34119187Y-32281250D01*
X34103630Y-32293247D01*
X34083591Y-32305903D01*
X34062057Y-32316661D01*
X34039030Y-32325521D01*
X34014509Y-32332481D01*
X33988493Y-32337544D01*
X33960983Y-32340708D01*
X33931979Y-32341974D01*
X33898096Y-32341077D01*
X33848848Y-32334592D01*
X33824028Y-32328439D01*
X33800649Y-32320441D01*
X33778711Y-32310597D01*
X33758215Y-32298908D01*
X33739161Y-32285373D01*
X33721547Y-32269992D01*
X33697830Y-32243460D01*
X33677248Y-32212799D01*
X33659563Y-32178063D01*
X33643298Y-32134688D01*
X33631707Y-32091352D01*
X33622215Y-32038422D01*
X33616720Y-31986485D01*
X33614131Y-31927000D01*
X33614000Y-31924000D01*
X33614829Y-31726000D01*
X33739000Y-31726000D01*
X33739000Y-31927000D01*
X33741938Y-32001750D01*
X33746757Y-32043137D01*
X33753871Y-32080422D01*
X33763280Y-32113605D01*
X33773711Y-32139964D01*
X33787449Y-32165356D01*
X33803260Y-32186880D01*
X33821463Y-32204692D01*
X33842059Y-32218794D01*
X33869932Y-32230817D01*
X33904016Y-32237813D01*
X33941238Y-32238561D01*
X33975516Y-32233305D01*
X34003641Y-32223180D01*
X34030301Y-32206498D01*
X34051395Y-32185826D01*
X34069124Y-32160070D01*
X34082630Y-32131576D01*
X34093595Y-32098238D01*
X34102020Y-32060055D01*
X34107904Y-32017027D01*
X34112000Y-31941000D01*
X34112000Y-31735000D01*
X34110671Y-31682884D01*
X34106683Y-31635850D01*
X34099300Y-31590334D01*
X34089753Y-31553923D01*
X34077547Y-31522594D01*
X34062667Y-31496317D01*
X34044824Y-31474556D01*
X34023909Y-31457108D01*
X33995230Y-31442048D01*
X33978011Y-31436434D01*
X33959547Y-31432566D01*
X33919051Y-31430071D01*
X33880250Y-31434563D01*
X33850953Y-31443973D01*
X33823341Y-31459959D01*
X33800020Y-31481970D01*
X33780967Y-31509924D01*
X33766682Y-31541090D01*
X33755350Y-31577810D01*
X33746971Y-31620086D01*
X33741545Y-31667916D01*
X33739000Y-31726000D01*
X33614829Y-31726000D01*
X33614897Y-31709859D01*
X33619292Y-31648551D01*
X33627348Y-31592662D01*
X33641850Y-31532750D01*
X33659776Y-31484687D01*
X33671422Y-31461234D01*
X33684386Y-31439733D01*
X33712036Y-31405284D01*
X33732250Y-31386625D01*
X33751176Y-31372650D01*
X33775122Y-31358702D01*
X33801078Y-31347289D01*
X33824926Y-31339525D01*
X33854614Y-31332823D01*
X33886312Y-31328656D01*
X33915082Y-31327104D01*
X33949481Y-31327623D01*
G37*
G36*
X29904630Y-10682928D02*
G01*
X29909700Y-10732389D01*
X29915001Y-10754916D01*
X29922145Y-10775975D01*
X29936319Y-10804809D01*
X29954641Y-10830338D01*
X29975002Y-10850544D01*
X30000643Y-10868521D01*
X30029799Y-10882349D01*
X30059614Y-10891380D01*
X30092383Y-10896926D01*
X30131500Y-10899000D01*
X30168091Y-10897257D01*
X30204436Y-10891380D01*
X30237055Y-10881355D01*
X30263683Y-10868521D01*
X30289159Y-10850544D01*
X30311044Y-10828516D01*
X30329021Y-10803016D01*
X30341855Y-10776676D01*
X30348999Y-10755738D01*
X30354300Y-10733301D01*
X30359370Y-10683926D01*
X30359500Y-10005000D01*
X30490500Y-10005000D01*
X30489819Y-10697564D01*
X30485307Y-10738823D01*
X30476596Y-10777593D01*
X30463686Y-10813872D01*
X30446577Y-10847661D01*
X30427588Y-10875942D01*
X30405198Y-10902206D01*
X30382727Y-10923329D01*
X30355125Y-10944188D01*
X30325071Y-10962001D01*
X30296297Y-10975278D01*
X30261611Y-10987339D01*
X30228721Y-10995503D01*
X30184883Y-11002324D01*
X30131500Y-11006000D01*
X30096852Y-11004947D01*
X30063783Y-11001789D01*
X30023586Y-10994635D01*
X29986000Y-10984000D01*
X29954781Y-10971625D01*
X29922125Y-10954416D01*
X29895290Y-10936197D01*
X29867531Y-10912497D01*
X29845531Y-10889177D01*
X29826531Y-10863763D01*
X29810531Y-10836255D01*
X29797531Y-10806653D01*
X29787531Y-10774958D01*
X29780531Y-10741169D01*
X29776867Y-10709886D01*
X29775500Y-10677000D01*
X29775500Y-10005000D01*
X29904500Y-10005000D01*
X29904630Y-10682928D01*
G37*
G36*
X31075500Y-10992000D02*
G01*
X30949500Y-10992000D01*
X30949500Y-10156000D01*
X30696500Y-10249000D01*
X30696500Y-10135000D01*
X31056500Y-10000000D01*
X31075500Y-10000000D01*
X31075500Y-10992000D01*
G37*
D13*
X36474000Y-29750500D02*
X36474000Y-11970500D01*
X39014000Y-29750500D02*
X36474000Y-29750500D01*
X36474000Y-11970500D02*
X39014000Y-11970500D01*
X39014000Y-11970500D02*
X39014000Y-29750500D01*
X21615000Y-11970500D02*
X23520000Y-11970500D01*
X23520000Y-11970500D02*
X23520000Y-29750500D01*
X23520000Y-29750500D02*
X20980000Y-29750500D01*
X20980000Y-29750500D02*
X20980000Y-12605500D01*
X20980000Y-12605500D02*
X21615000Y-11970500D01*
D11*
X36414000Y-29810500D02*
X39074000Y-29810500D01*
X36474000Y-11970500D02*
X36414000Y-29810500D01*
D14*
X39544000Y-30290500D02*
X39544000Y-11440500D01*
D11*
X39074000Y-11970500D02*
X39074000Y-29810500D01*
D14*
X39544000Y-11440500D02*
X35944000Y-11440500D01*
X35944000Y-30290500D02*
X39544000Y-30290500D01*
X35944000Y-11440500D02*
X35944000Y-30290500D01*
D11*
X36474000Y-11970500D02*
X39074000Y-11970500D01*
X20920000Y-29810500D02*
X23580000Y-29810500D01*
X20920000Y-14510500D02*
X20920000Y-29810500D01*
X23580000Y-14510500D02*
X23580000Y-29810500D01*
X20920000Y-14510500D02*
X23580000Y-14510500D01*
X20920000Y-13240500D02*
X20920000Y-11910500D01*
X20920000Y-11910500D02*
X22250000Y-11910500D01*
D14*
X20450000Y-11440500D02*
X20450000Y-30290500D01*
X20450000Y-30290500D02*
X24050000Y-30290500D01*
X24050000Y-30290500D02*
X24050000Y-11440500D01*
X24050000Y-11440500D02*
X20450000Y-11440500D01*
D10*
%TO.C,SW2*%
G36*
X36325104Y-58387142D02*
G01*
X36357744Y-58391437D01*
X36386289Y-58397340D01*
X36413760Y-58405147D01*
X36462960Y-58425257D01*
X36486622Y-58438607D01*
X36510677Y-58454927D01*
X36532663Y-58472960D01*
X36552582Y-58492707D01*
X36568896Y-58512146D01*
X36584864Y-58535159D01*
X36598453Y-58559332D01*
X36608551Y-58581974D01*
X36617177Y-58607613D01*
X36622763Y-58631587D01*
X36626426Y-58658692D01*
X36627500Y-58684000D01*
X36496500Y-58684000D01*
X36492938Y-58641813D01*
X36488484Y-58622453D01*
X36481345Y-58602056D01*
X36473107Y-58585154D01*
X36461710Y-58567521D01*
X36449687Y-58553075D01*
X36435892Y-58539862D01*
X36420540Y-58528308D01*
X36403720Y-58518347D01*
X36385431Y-58509979D01*
X36365673Y-58503206D01*
X36321751Y-58494440D01*
X36272541Y-58492042D01*
X36222602Y-58496199D01*
X36200124Y-58500829D01*
X36179307Y-58507159D01*
X36160151Y-58515190D01*
X36142656Y-58524922D01*
X36125178Y-58537657D01*
X36111533Y-58550412D01*
X36100023Y-58564473D01*
X36090650Y-58579838D01*
X36083412Y-58596509D01*
X36078310Y-58614485D01*
X36075146Y-58635989D01*
X36074612Y-58657675D01*
X36076604Y-58675956D01*
X36081087Y-58693261D01*
X36092479Y-58717387D01*
X36109475Y-58739315D01*
X36132160Y-58759223D01*
X36162215Y-58778321D01*
X36194750Y-58794250D01*
X36233309Y-58809602D01*
X36365416Y-58850758D01*
X36433156Y-58876625D01*
X36467186Y-58892799D01*
X36496839Y-58909638D01*
X36525188Y-58928813D01*
X36548341Y-58947732D01*
X36571262Y-58970895D01*
X36590118Y-58995486D01*
X36605295Y-59021964D01*
X36616875Y-59050649D01*
X36624719Y-59081422D01*
X36628828Y-59114282D01*
X36629133Y-59149813D01*
X36625622Y-59181770D01*
X36617360Y-59215051D01*
X36602971Y-59248953D01*
X36583028Y-59280020D01*
X36560079Y-59305801D01*
X36529625Y-59331491D01*
X36495078Y-59353644D01*
X36456750Y-59371484D01*
X36414641Y-59385011D01*
X36368750Y-59394226D01*
X36319078Y-59399127D01*
X36263355Y-59399533D01*
X36213996Y-59394963D01*
X36169311Y-59386251D01*
X36123342Y-59372235D01*
X36079352Y-59353433D01*
X36042057Y-59332284D01*
X36011213Y-59309671D01*
X35986000Y-59286187D01*
X35964088Y-59260311D01*
X35944418Y-59230093D01*
X35930250Y-59200469D01*
X35920043Y-59169359D01*
X35913797Y-59136764D01*
X35911500Y-59100000D01*
X36042500Y-59100000D01*
X36045223Y-59134630D01*
X36053393Y-59166206D01*
X36067008Y-59194729D01*
X36086070Y-59220199D01*
X36110573Y-59242612D01*
X36141909Y-59262519D01*
X36174863Y-59276547D01*
X36211531Y-59286284D01*
X36255171Y-59291972D01*
X36301301Y-59292744D01*
X36342426Y-59289298D01*
X36381391Y-59281146D01*
X36413000Y-59269375D01*
X36440016Y-59253584D01*
X36462191Y-59234160D01*
X36480117Y-59210045D01*
X36488711Y-59192076D01*
X36495063Y-59170563D01*
X36498164Y-59147217D01*
X36498052Y-59122781D01*
X36494902Y-59100008D01*
X36489423Y-59080945D01*
X36480521Y-59061781D01*
X36468605Y-59044508D01*
X36455157Y-59030445D01*
X36440805Y-59019125D01*
X36397719Y-58994750D01*
X36338617Y-58970375D01*
X36263500Y-58946000D01*
X36180741Y-58918948D01*
X36142184Y-58903369D01*
X36107265Y-58886920D01*
X36075984Y-58869602D01*
X36048343Y-58851413D01*
X36026827Y-58834514D01*
X36005739Y-58814406D01*
X35987636Y-58792961D01*
X35972578Y-58770250D01*
X35960566Y-58746273D01*
X35951599Y-58721031D01*
X35945677Y-58694523D01*
X35942801Y-58666750D01*
X35943074Y-58636113D01*
X35946378Y-58608484D01*
X35952621Y-58582074D01*
X35961800Y-58556883D01*
X35973917Y-58532910D01*
X35991061Y-58507397D01*
X36009420Y-58486015D01*
X36033585Y-58463416D01*
X36057514Y-58445284D01*
X36086500Y-58427750D01*
X36114125Y-58414688D01*
X36143500Y-58404000D01*
X36178639Y-58394815D01*
X36211732Y-58389175D01*
X36251055Y-58385668D01*
X36288014Y-58385086D01*
X36325104Y-58387142D01*
G37*
G36*
X37009500Y-59075000D02*
G01*
X37028500Y-59205000D01*
X37055500Y-59088000D01*
X37251500Y-58399000D01*
X37361500Y-58399000D01*
X37551500Y-59088000D01*
X37578500Y-59207000D01*
X37599500Y-59074000D01*
X37753500Y-58399000D01*
X37883500Y-58399000D01*
X37644500Y-59386000D01*
X37525500Y-59386000D01*
X37322500Y-58666000D01*
X37306500Y-58591000D01*
X37291500Y-58666000D01*
X37080500Y-59386000D01*
X36961500Y-59386000D01*
X36722500Y-58399000D01*
X36853500Y-58399000D01*
X37009500Y-59075000D01*
G37*
G36*
X38333094Y-58386125D02*
G01*
X38376326Y-58391346D01*
X38416131Y-58400820D01*
X38452509Y-58414549D01*
X38482607Y-58430721D01*
X38512443Y-58452570D01*
X38538418Y-58478219D01*
X38559688Y-58506785D01*
X38574922Y-58535267D01*
X38587168Y-58569360D01*
X38594199Y-58602865D01*
X38597422Y-58642485D01*
X38596773Y-58668348D01*
X38592959Y-58696704D01*
X38585875Y-58726062D01*
X38575521Y-58756423D01*
X38561898Y-58787785D01*
X38545006Y-58820149D01*
X38505544Y-58882086D01*
X38469943Y-58929246D01*
X38428529Y-58978188D01*
X38146500Y-59284000D01*
X38642500Y-59284000D01*
X38642500Y-59386000D01*
X37995500Y-59386000D01*
X37995500Y-59296000D01*
X38337500Y-58916000D01*
X38387891Y-58856000D01*
X38421139Y-58810883D01*
X38444223Y-58772621D01*
X38459563Y-58734937D01*
X38468285Y-58696309D01*
X38470320Y-58654484D01*
X38465064Y-58614371D01*
X38459708Y-58595976D01*
X38452531Y-58578687D01*
X38443536Y-58562507D01*
X38432721Y-58547434D01*
X38420026Y-58533422D01*
X38405785Y-58521008D01*
X38392098Y-58511633D01*
X38375541Y-58502954D01*
X38357759Y-58496252D01*
X38340923Y-58491955D01*
X38301930Y-58488012D01*
X38255125Y-58491313D01*
X38216000Y-58501250D01*
X38198406Y-58508703D01*
X38182125Y-58517812D01*
X38167156Y-58528578D01*
X38153500Y-58541000D01*
X38141547Y-58555141D01*
X38131187Y-58570562D01*
X38115250Y-58605250D01*
X38105688Y-58645062D01*
X38102500Y-58690000D01*
X37976500Y-58690000D01*
X37979100Y-58644472D01*
X37985975Y-58605800D01*
X37998500Y-58566250D01*
X38014398Y-58533013D01*
X38034594Y-58502363D01*
X38061771Y-58471638D01*
X38093440Y-58444801D01*
X38125262Y-58424703D01*
X38159964Y-58408707D01*
X38197547Y-58396813D01*
X38242216Y-58388466D01*
X38285848Y-58385185D01*
X38333094Y-58386125D01*
G37*
D11*
X35000000Y-66340500D02*
X39500000Y-66340500D01*
X33750000Y-62340500D02*
X33750000Y-63840500D01*
X39500000Y-59840500D02*
X35000000Y-59840500D01*
X40750000Y-63840500D02*
X40750000Y-62340500D01*
D10*
%TO.C,R2*%
G36*
X33474485Y-43529167D02*
G01*
X33528330Y-43532637D01*
X33573281Y-43539687D01*
X33606500Y-43548000D01*
X33633567Y-43557222D01*
X33662215Y-43569987D01*
X33685283Y-43583105D01*
X33709361Y-43600324D01*
X33731084Y-43619687D01*
X33750068Y-43641210D01*
X33764373Y-43661863D01*
X33778083Y-43687547D01*
X33788982Y-43715449D01*
X33797881Y-43749491D01*
X33802803Y-43782108D01*
X33804978Y-43821455D01*
X33803804Y-43854164D01*
X33799210Y-43886414D01*
X33790345Y-43919447D01*
X33778574Y-43948182D01*
X33764757Y-43973039D01*
X33746282Y-43998630D01*
X33724790Y-44022044D01*
X33702680Y-44041345D01*
X33675932Y-44060042D01*
X33646442Y-44076279D01*
X33617000Y-44089000D01*
X33849000Y-44508000D01*
X33849000Y-44516000D01*
X33709000Y-44516000D01*
X33495000Y-44117000D01*
X33263000Y-44117000D01*
X33263000Y-44516000D01*
X33132000Y-44516000D01*
X33132000Y-44010000D01*
X33263000Y-44010000D01*
X33466021Y-44009988D01*
X33506271Y-44007253D01*
X33537725Y-44001101D01*
X33566365Y-43991433D01*
X33590148Y-43979482D01*
X33613398Y-43963076D01*
X33637804Y-43938285D01*
X33655965Y-43909742D01*
X33667863Y-43877464D01*
X33673318Y-43843968D01*
X33672932Y-43800975D01*
X33666406Y-43763047D01*
X33653948Y-43729843D01*
X33644877Y-43714065D01*
X33634120Y-43699632D01*
X33612938Y-43679066D01*
X33587395Y-43662426D01*
X33557891Y-43649829D01*
X33521688Y-43640785D01*
X33495988Y-43637448D01*
X33468391Y-43636048D01*
X33263000Y-43636000D01*
X33263000Y-44010000D01*
X33132000Y-44010000D01*
X33132000Y-43636000D01*
X33132000Y-43529000D01*
X33474485Y-43529167D01*
G37*
G36*
X34292594Y-43516125D02*
G01*
X34335826Y-43521346D01*
X34375631Y-43530820D01*
X34412009Y-43544549D01*
X34444961Y-43562531D01*
X34471943Y-43582570D01*
X34497918Y-43608219D01*
X34519188Y-43636785D01*
X34534422Y-43665267D01*
X34546668Y-43699360D01*
X34554188Y-43736348D01*
X34556922Y-43772485D01*
X34556273Y-43798348D01*
X34552459Y-43826704D01*
X34545375Y-43856062D01*
X34535021Y-43886423D01*
X34521398Y-43917785D01*
X34507548Y-43944686D01*
X34487931Y-43977885D01*
X34465044Y-44012086D01*
X34429443Y-44059246D01*
X34388029Y-44108188D01*
X34106000Y-44414000D01*
X34602000Y-44414000D01*
X34602000Y-44516000D01*
X33955000Y-44516000D01*
X33955000Y-44426000D01*
X34297000Y-44046000D01*
X34347391Y-43986000D01*
X34380639Y-43940883D01*
X34403723Y-43902621D01*
X34419063Y-43864937D01*
X34427785Y-43826309D01*
X34429820Y-43784484D01*
X34424564Y-43744371D01*
X34419208Y-43725976D01*
X34412031Y-43708687D01*
X34403036Y-43692507D01*
X34392221Y-43677434D01*
X34379526Y-43663422D01*
X34365285Y-43651008D01*
X34351598Y-43641633D01*
X34335041Y-43632954D01*
X34317259Y-43626252D01*
X34300423Y-43621955D01*
X34261430Y-43618012D01*
X34214625Y-43621312D01*
X34175500Y-43631250D01*
X34157906Y-43638703D01*
X34141625Y-43647812D01*
X34126656Y-43658578D01*
X34113000Y-43671000D01*
X34101047Y-43685141D01*
X34090687Y-43700562D01*
X34074750Y-43735250D01*
X34065188Y-43775062D01*
X34062000Y-43820000D01*
X33936000Y-43820000D01*
X33938600Y-43774472D01*
X33945475Y-43735800D01*
X33956646Y-43699716D01*
X33973898Y-43663013D01*
X33994094Y-43632363D01*
X34021271Y-43601638D01*
X34052940Y-43574801D01*
X34084762Y-43554703D01*
X34119464Y-43538707D01*
X34157047Y-43526812D01*
X34197511Y-43519020D01*
X34245348Y-43515185D01*
X34292594Y-43516125D01*
G37*
D11*
X37080000Y-47710500D02*
X37080000Y-47380500D01*
X30540000Y-47710500D02*
X37080000Y-47710500D01*
X30540000Y-47380500D02*
X30540000Y-47710500D01*
X37080000Y-44970500D02*
X37080000Y-45300500D01*
X30540000Y-44970500D02*
X37080000Y-44970500D01*
X30540000Y-45300500D02*
X30540000Y-44970500D01*
%TD*%
M02*
